G75*
%MOIN*%
%OFA0B0*%
%FSLAX25Y25*%
%IPPOS*%
%LPD*%
%AMOC8*
5,1,8,0,0,1.08239X$1,22.5*
%
%ADD10C,0.01000*%
%ADD11C,0.00300*%
%ADD12C,0.01200*%
%ADD13C,0.00600*%
%ADD14C,0.00787*%
%ADD15C,0.00400*%
D10*
X0003000Y0050276D02*
X0003000Y0255000D01*
X0422291Y0255000D01*
X0422291Y0050276D01*
X0325835Y0050276D01*
X0325835Y0006969D01*
X0166386Y0006969D01*
X0166386Y0050276D01*
X0003000Y0050276D01*
D11*
X0351575Y0066174D02*
X0351575Y0069877D01*
X0352810Y0068642D01*
X0354044Y0069877D01*
X0354044Y0066174D01*
X0355258Y0066174D02*
X0355876Y0066174D01*
X0355876Y0066791D01*
X0355258Y0066791D01*
X0355258Y0066174D01*
X0360783Y0066791D02*
X0361400Y0066174D01*
X0362635Y0066174D01*
X0363252Y0066791D01*
X0364466Y0066791D02*
X0365083Y0067408D01*
X0366935Y0067408D01*
X0366935Y0068025D02*
X0366935Y0066174D01*
X0365083Y0066174D01*
X0364466Y0066791D01*
X0365083Y0068642D02*
X0366318Y0068642D01*
X0366935Y0068025D01*
X0368149Y0067408D02*
X0369384Y0068642D01*
X0370001Y0068642D01*
X0371219Y0068642D02*
X0372453Y0068642D01*
X0371836Y0069260D02*
X0371836Y0066791D01*
X0372453Y0066174D01*
X0373674Y0066791D02*
X0373674Y0068025D01*
X0374291Y0068642D01*
X0375526Y0068642D01*
X0376143Y0068025D01*
X0376143Y0067408D01*
X0373674Y0067408D01*
X0373674Y0066791D02*
X0374291Y0066174D01*
X0375526Y0066174D01*
X0377357Y0066174D02*
X0377357Y0068642D01*
X0377357Y0067408D02*
X0378592Y0068642D01*
X0379209Y0068642D01*
X0379209Y0072174D02*
X0377974Y0072174D01*
X0377357Y0072791D01*
X0377357Y0074025D01*
X0377974Y0074642D01*
X0379209Y0074642D01*
X0379826Y0074025D01*
X0379826Y0072791D01*
X0379209Y0072174D01*
X0381040Y0072174D02*
X0381040Y0074642D01*
X0381040Y0073408D02*
X0382275Y0074642D01*
X0382892Y0074642D01*
X0384110Y0074642D02*
X0384110Y0072791D01*
X0384727Y0072174D01*
X0386578Y0072174D01*
X0386578Y0071556D02*
X0385961Y0070939D01*
X0385344Y0070939D01*
X0384727Y0069877D02*
X0384110Y0069260D01*
X0384727Y0069877D02*
X0385961Y0069877D01*
X0386578Y0069260D01*
X0386578Y0068642D01*
X0384110Y0066174D01*
X0386578Y0066174D01*
X0387793Y0066791D02*
X0390262Y0069260D01*
X0390262Y0066791D01*
X0389644Y0066174D01*
X0388410Y0066174D01*
X0387793Y0066791D01*
X0387793Y0069260D01*
X0388410Y0069877D01*
X0389644Y0069877D01*
X0390262Y0069260D01*
X0391476Y0069260D02*
X0392093Y0069877D01*
X0393327Y0069877D01*
X0393945Y0069260D01*
X0393945Y0068642D01*
X0391476Y0066174D01*
X0393945Y0066174D01*
X0395159Y0066174D02*
X0397628Y0066174D01*
X0396393Y0066174D02*
X0396393Y0069877D01*
X0395159Y0068642D01*
X0386578Y0071556D02*
X0386578Y0074642D01*
X0376143Y0074025D02*
X0376143Y0072174D01*
X0374908Y0072174D02*
X0374908Y0074025D01*
X0375526Y0074642D01*
X0376143Y0074025D01*
X0374908Y0074025D02*
X0374291Y0074642D01*
X0373674Y0074642D01*
X0373674Y0072174D01*
X0372460Y0073408D02*
X0369991Y0073408D01*
X0369991Y0072791D02*
X0369991Y0074025D01*
X0370608Y0074642D01*
X0371842Y0074642D01*
X0372460Y0074025D01*
X0372460Y0073408D01*
X0371842Y0072174D02*
X0370608Y0072174D01*
X0369991Y0072791D01*
X0368777Y0072174D02*
X0368777Y0075877D01*
X0367542Y0074642D01*
X0366308Y0075877D01*
X0366308Y0072174D01*
X0368149Y0068642D02*
X0368149Y0066174D01*
X0363252Y0069260D02*
X0362635Y0069877D01*
X0361400Y0069877D01*
X0360783Y0069260D01*
X0360783Y0066791D01*
X0360793Y0072174D02*
X0358941Y0072174D01*
X0358941Y0075877D01*
X0360793Y0075877D01*
X0361410Y0075260D01*
X0361410Y0074642D01*
X0360793Y0074025D01*
X0358941Y0074025D01*
X0360793Y0074025D02*
X0361410Y0073408D01*
X0361410Y0072791D01*
X0360793Y0072174D01*
X0357727Y0072174D02*
X0357727Y0075877D01*
X0356493Y0074642D01*
X0355258Y0075877D01*
X0355258Y0072174D01*
X0354044Y0072174D02*
X0351575Y0072174D01*
X0354044Y0074642D01*
X0354044Y0075260D01*
X0353427Y0075877D01*
X0352192Y0075877D01*
X0351575Y0075260D01*
D12*
X0337823Y0072420D02*
X0335323Y0072420D01*
X0332823Y0072420D01*
X0332823Y0069920D02*
X0335323Y0069920D01*
X0337823Y0069920D01*
D13*
X0335323Y0069920D02*
X0335323Y0065220D01*
X0335323Y0072420D02*
X0335323Y0077220D01*
X0340323Y0084720D02*
X0340321Y0084780D01*
X0340316Y0084841D01*
X0340307Y0084900D01*
X0340294Y0084959D01*
X0340278Y0085018D01*
X0340258Y0085075D01*
X0340235Y0085130D01*
X0340208Y0085185D01*
X0340179Y0085237D01*
X0340146Y0085288D01*
X0340110Y0085337D01*
X0340072Y0085383D01*
X0340030Y0085427D01*
X0339986Y0085469D01*
X0339940Y0085507D01*
X0339891Y0085543D01*
X0339840Y0085576D01*
X0339788Y0085605D01*
X0339733Y0085632D01*
X0339678Y0085655D01*
X0339621Y0085675D01*
X0339562Y0085691D01*
X0339503Y0085704D01*
X0339444Y0085713D01*
X0339383Y0085718D01*
X0339323Y0085720D01*
X0331323Y0085720D01*
X0331263Y0085718D01*
X0331202Y0085713D01*
X0331143Y0085704D01*
X0331084Y0085691D01*
X0331025Y0085675D01*
X0330968Y0085655D01*
X0330913Y0085632D01*
X0330858Y0085605D01*
X0330806Y0085576D01*
X0330755Y0085543D01*
X0330706Y0085507D01*
X0330660Y0085469D01*
X0330616Y0085427D01*
X0330574Y0085383D01*
X0330536Y0085337D01*
X0330500Y0085288D01*
X0330467Y0085237D01*
X0330438Y0085185D01*
X0330411Y0085130D01*
X0330388Y0085075D01*
X0330368Y0085018D01*
X0330352Y0084959D01*
X0330339Y0084900D01*
X0330330Y0084841D01*
X0330325Y0084780D01*
X0330323Y0084720D01*
X0330323Y0057720D01*
X0330325Y0057660D01*
X0330330Y0057599D01*
X0330339Y0057540D01*
X0330352Y0057481D01*
X0330368Y0057422D01*
X0330388Y0057365D01*
X0330411Y0057310D01*
X0330438Y0057255D01*
X0330467Y0057203D01*
X0330500Y0057152D01*
X0330536Y0057103D01*
X0330574Y0057057D01*
X0330616Y0057013D01*
X0330660Y0056971D01*
X0330706Y0056933D01*
X0330755Y0056897D01*
X0330806Y0056864D01*
X0330858Y0056835D01*
X0330913Y0056808D01*
X0330968Y0056785D01*
X0331025Y0056765D01*
X0331084Y0056749D01*
X0331143Y0056736D01*
X0331202Y0056727D01*
X0331263Y0056722D01*
X0331323Y0056720D01*
X0339323Y0056720D01*
X0339383Y0056722D01*
X0339444Y0056727D01*
X0339503Y0056736D01*
X0339562Y0056749D01*
X0339621Y0056765D01*
X0339678Y0056785D01*
X0339733Y0056808D01*
X0339788Y0056835D01*
X0339840Y0056864D01*
X0339891Y0056897D01*
X0339940Y0056933D01*
X0339986Y0056971D01*
X0340030Y0057013D01*
X0340072Y0057057D01*
X0340110Y0057103D01*
X0340146Y0057152D01*
X0340179Y0057203D01*
X0340208Y0057255D01*
X0340235Y0057310D01*
X0340258Y0057365D01*
X0340278Y0057422D01*
X0340294Y0057481D01*
X0340307Y0057540D01*
X0340316Y0057599D01*
X0340321Y0057660D01*
X0340323Y0057720D01*
X0340323Y0084720D01*
X0318000Y0070531D02*
X0318000Y0055531D01*
X0315500Y0053031D01*
X0310500Y0053031D01*
X0308000Y0055531D01*
X0308000Y0070531D01*
X0310500Y0073031D01*
X0315500Y0073031D01*
X0318000Y0070531D01*
X0308000Y0070531D02*
X0305500Y0073031D01*
X0300500Y0073031D01*
X0298000Y0070531D01*
X0298000Y0055531D01*
X0295500Y0053031D01*
X0290500Y0053031D01*
X0288000Y0055531D01*
X0288000Y0070531D01*
X0290500Y0073031D01*
X0295500Y0073031D01*
X0298000Y0070531D01*
X0288000Y0070531D02*
X0285500Y0073031D01*
X0280500Y0073031D01*
X0278000Y0070531D01*
X0278000Y0055531D01*
X0275500Y0053031D01*
X0270500Y0053031D01*
X0268000Y0055531D01*
X0268000Y0070531D01*
X0270500Y0073031D01*
X0275500Y0073031D01*
X0278000Y0070531D01*
X0268000Y0070531D02*
X0265500Y0073031D01*
X0260500Y0073031D01*
X0258000Y0070531D01*
X0258000Y0055531D01*
X0255500Y0053031D01*
X0250500Y0053031D01*
X0248000Y0055531D01*
X0248000Y0070531D01*
X0250500Y0073031D01*
X0255500Y0073031D01*
X0258000Y0070531D01*
X0248000Y0070531D02*
X0245500Y0073031D01*
X0240500Y0073031D01*
X0238000Y0070531D01*
X0238000Y0055531D01*
X0235500Y0053031D01*
X0230500Y0053031D01*
X0228000Y0055531D01*
X0228000Y0070531D01*
X0230500Y0073031D01*
X0235500Y0073031D01*
X0238000Y0070531D01*
X0228000Y0070531D02*
X0225500Y0073031D01*
X0220500Y0073031D01*
X0218000Y0070531D01*
X0218000Y0055531D01*
X0220500Y0053031D01*
X0225500Y0053031D01*
X0228000Y0055531D01*
X0218000Y0055531D02*
X0215500Y0053031D01*
X0210500Y0053031D01*
X0208000Y0055531D01*
X0208000Y0070531D01*
X0210500Y0073031D01*
X0215500Y0073031D01*
X0218000Y0070531D01*
X0208000Y0070531D02*
X0205500Y0073031D01*
X0200500Y0073031D01*
X0198000Y0070531D01*
X0198000Y0055531D01*
X0200500Y0053031D01*
X0205500Y0053031D01*
X0208000Y0055531D01*
X0198000Y0055531D02*
X0195500Y0053031D01*
X0190500Y0053031D01*
X0188000Y0055531D01*
X0188000Y0070531D01*
X0190500Y0073031D01*
X0195500Y0073031D01*
X0198000Y0070531D01*
X0188000Y0070531D02*
X0185500Y0073031D01*
X0180500Y0073031D01*
X0178000Y0070531D01*
X0178000Y0055531D01*
X0180500Y0053031D01*
X0185500Y0053031D01*
X0188000Y0055531D01*
X0178000Y0055531D02*
X0175500Y0053031D01*
X0170500Y0053031D01*
X0168000Y0055531D01*
X0168000Y0070531D01*
X0170500Y0073031D01*
X0175500Y0073031D01*
X0178000Y0070531D01*
X0143669Y0070295D02*
X0141169Y0067795D01*
X0136169Y0067795D01*
X0133669Y0070295D01*
X0133669Y0075295D01*
X0136169Y0077795D01*
X0133669Y0080295D01*
X0133669Y0085295D01*
X0136169Y0087795D01*
X0141169Y0087795D01*
X0143669Y0085295D01*
X0143669Y0080295D01*
X0141169Y0077795D01*
X0143669Y0075295D01*
X0143669Y0070295D01*
X0141169Y0077795D02*
X0136169Y0077795D01*
X0238000Y0055531D02*
X0240500Y0053031D01*
X0245500Y0053031D01*
X0248000Y0055531D01*
X0258000Y0055531D02*
X0260500Y0053031D01*
X0265500Y0053031D01*
X0268000Y0055531D01*
X0278000Y0055531D02*
X0280500Y0053031D01*
X0285500Y0053031D01*
X0288000Y0055531D01*
X0298000Y0055531D02*
X0300500Y0053031D01*
X0305500Y0053031D01*
X0308000Y0055531D01*
X0177791Y0134858D02*
X0166791Y0134858D01*
X0166731Y0134860D01*
X0166670Y0134865D01*
X0166611Y0134874D01*
X0166552Y0134887D01*
X0166493Y0134903D01*
X0166436Y0134923D01*
X0166381Y0134946D01*
X0166326Y0134973D01*
X0166274Y0135002D01*
X0166223Y0135035D01*
X0166174Y0135071D01*
X0166128Y0135109D01*
X0166084Y0135151D01*
X0166042Y0135195D01*
X0166004Y0135241D01*
X0165968Y0135290D01*
X0165935Y0135341D01*
X0165906Y0135393D01*
X0165879Y0135448D01*
X0165856Y0135503D01*
X0165836Y0135560D01*
X0165820Y0135619D01*
X0165807Y0135678D01*
X0165798Y0135737D01*
X0165793Y0135798D01*
X0165791Y0135858D01*
X0165791Y0141858D01*
X0165793Y0141918D01*
X0165798Y0141979D01*
X0165807Y0142038D01*
X0165820Y0142097D01*
X0165836Y0142156D01*
X0165856Y0142213D01*
X0165879Y0142268D01*
X0165906Y0142323D01*
X0165935Y0142375D01*
X0165968Y0142426D01*
X0166004Y0142475D01*
X0166042Y0142521D01*
X0166084Y0142565D01*
X0166128Y0142607D01*
X0166174Y0142645D01*
X0166223Y0142681D01*
X0166274Y0142714D01*
X0166326Y0142743D01*
X0166381Y0142770D01*
X0166436Y0142793D01*
X0166493Y0142813D01*
X0166552Y0142829D01*
X0166611Y0142842D01*
X0166670Y0142851D01*
X0166731Y0142856D01*
X0166791Y0142858D01*
X0177791Y0142858D01*
X0177851Y0142856D01*
X0177912Y0142851D01*
X0177971Y0142842D01*
X0178030Y0142829D01*
X0178089Y0142813D01*
X0178146Y0142793D01*
X0178201Y0142770D01*
X0178256Y0142743D01*
X0178308Y0142714D01*
X0178359Y0142681D01*
X0178408Y0142645D01*
X0178454Y0142607D01*
X0178498Y0142565D01*
X0178540Y0142521D01*
X0178578Y0142475D01*
X0178614Y0142426D01*
X0178647Y0142375D01*
X0178676Y0142323D01*
X0178703Y0142268D01*
X0178726Y0142213D01*
X0178746Y0142156D01*
X0178762Y0142097D01*
X0178775Y0142038D01*
X0178784Y0141979D01*
X0178789Y0141918D01*
X0178791Y0141858D01*
X0178791Y0135858D01*
X0178789Y0135798D01*
X0178784Y0135737D01*
X0178775Y0135678D01*
X0178762Y0135619D01*
X0178746Y0135560D01*
X0178726Y0135503D01*
X0178703Y0135448D01*
X0178676Y0135393D01*
X0178647Y0135341D01*
X0178614Y0135290D01*
X0178578Y0135241D01*
X0178540Y0135195D01*
X0178498Y0135151D01*
X0178454Y0135109D01*
X0178408Y0135071D01*
X0178359Y0135035D01*
X0178308Y0135002D01*
X0178256Y0134973D01*
X0178201Y0134946D01*
X0178146Y0134923D01*
X0178089Y0134903D01*
X0178030Y0134887D01*
X0177971Y0134874D01*
X0177912Y0134865D01*
X0177851Y0134860D01*
X0177791Y0134858D01*
X0027252Y0229035D02*
X0024752Y0226535D01*
X0019752Y0226535D01*
X0017252Y0229035D01*
X0014752Y0226535D01*
X0009752Y0226535D01*
X0007252Y0229035D01*
X0007252Y0234035D01*
X0009752Y0236535D01*
X0014752Y0236535D01*
X0017252Y0234035D01*
X0019752Y0236535D01*
X0024752Y0236535D01*
X0027252Y0234035D01*
X0027252Y0229035D01*
X0017252Y0229035D02*
X0017252Y0234035D01*
X0398039Y0227421D02*
X0398039Y0222421D01*
X0400539Y0219921D01*
X0405539Y0219921D01*
X0408039Y0222421D01*
X0410539Y0219921D01*
X0415539Y0219921D01*
X0418039Y0222421D01*
X0418039Y0227421D01*
X0415539Y0229921D01*
X0410539Y0229921D01*
X0408039Y0227421D01*
X0408039Y0222421D01*
X0408039Y0227421D02*
X0405539Y0229921D01*
X0400539Y0229921D01*
X0398039Y0227421D01*
D14*
X0381346Y0140138D02*
X0368748Y0140138D01*
X0368748Y0106083D01*
X0381346Y0106083D01*
X0381346Y0140138D01*
X0382724Y0105453D02*
X0388728Y0105453D01*
X0303138Y0105531D02*
X0297134Y0105531D01*
X0295756Y0106161D02*
X0295756Y0140217D01*
X0283157Y0140217D01*
X0283157Y0106161D01*
X0295756Y0106161D01*
X0146839Y0105531D02*
X0140835Y0105531D01*
X0139457Y0106161D02*
X0139457Y0140217D01*
X0126858Y0140217D01*
X0126858Y0106161D01*
X0139457Y0106161D01*
X0060618Y0105531D02*
X0054614Y0105531D01*
X0053236Y0106161D02*
X0053236Y0140217D01*
X0040638Y0140217D01*
X0040638Y0106161D01*
X0053236Y0106161D01*
D15*
X0057112Y0102461D02*
X0057112Y0097857D01*
X0055577Y0097857D02*
X0058647Y0097857D01*
X0055577Y0100927D02*
X0057112Y0102461D01*
X0054043Y0097090D02*
X0050974Y0097090D01*
X0048672Y0099392D02*
X0046370Y0099392D01*
X0046370Y0097857D02*
X0046370Y0102461D01*
X0048672Y0102461D01*
X0049439Y0101694D01*
X0049439Y0100159D01*
X0048672Y0099392D01*
X0044835Y0097857D02*
X0043300Y0097857D01*
X0044068Y0097857D02*
X0044068Y0102461D01*
X0044835Y0102461D02*
X0043300Y0102461D01*
X0041766Y0102461D02*
X0041766Y0097857D01*
X0041766Y0100159D02*
X0038696Y0100159D01*
X0037162Y0098625D02*
X0036394Y0097857D01*
X0034860Y0097857D01*
X0034093Y0098625D01*
X0034093Y0101694D01*
X0034860Y0102461D01*
X0036394Y0102461D01*
X0037162Y0101694D01*
X0038696Y0102461D02*
X0038696Y0097857D01*
X0033893Y0057304D02*
X0030824Y0057304D01*
X0032358Y0057304D02*
X0032358Y0052700D01*
X0029289Y0052700D02*
X0029289Y0057304D01*
X0026220Y0057304D02*
X0029289Y0052700D01*
X0026220Y0052700D02*
X0026220Y0057304D01*
X0024685Y0056537D02*
X0023918Y0057304D01*
X0022383Y0057304D01*
X0021616Y0056537D01*
X0021616Y0053467D01*
X0022383Y0052700D01*
X0023918Y0052700D01*
X0024685Y0053467D01*
X0024685Y0056537D01*
X0020081Y0056537D02*
X0019314Y0057304D01*
X0017012Y0057304D01*
X0017012Y0052700D01*
X0017012Y0054235D02*
X0019314Y0054235D01*
X0020081Y0055002D01*
X0020081Y0056537D01*
X0018546Y0054235D02*
X0020081Y0052700D01*
X0015477Y0057304D02*
X0012408Y0057304D01*
X0012408Y0052700D01*
X0010873Y0052700D02*
X0007804Y0055002D01*
X0010873Y0057304D01*
X0012408Y0055002D02*
X0013942Y0055002D01*
X0006269Y0057304D02*
X0003200Y0055002D01*
X0006269Y0052700D01*
X0120313Y0098625D02*
X0121080Y0097857D01*
X0122615Y0097857D01*
X0123382Y0098625D01*
X0124917Y0097857D02*
X0124917Y0102461D01*
X0123382Y0101694D02*
X0122615Y0102461D01*
X0121080Y0102461D01*
X0120313Y0101694D01*
X0120313Y0098625D01*
X0124917Y0100159D02*
X0127986Y0100159D01*
X0127986Y0102461D02*
X0127986Y0097857D01*
X0129521Y0097857D02*
X0131055Y0097857D01*
X0130288Y0097857D02*
X0130288Y0102461D01*
X0129521Y0102461D02*
X0131055Y0102461D01*
X0132590Y0102461D02*
X0134892Y0102461D01*
X0135659Y0101694D01*
X0135659Y0100159D01*
X0134892Y0099392D01*
X0132590Y0099392D01*
X0132590Y0097857D02*
X0132590Y0102461D01*
X0137194Y0097090D02*
X0140263Y0097090D01*
X0141798Y0097857D02*
X0144867Y0100927D01*
X0144867Y0101694D01*
X0144100Y0102461D01*
X0142565Y0102461D01*
X0141798Y0101694D01*
X0141798Y0097857D02*
X0144867Y0097857D01*
X0173967Y0044804D02*
X0173200Y0044037D01*
X0173967Y0044804D02*
X0175502Y0044804D01*
X0176269Y0044037D01*
X0176269Y0043269D01*
X0173200Y0040200D01*
X0176269Y0040200D01*
X0276612Y0098625D02*
X0277380Y0097857D01*
X0278914Y0097857D01*
X0279681Y0098625D01*
X0281216Y0097857D02*
X0281216Y0102461D01*
X0279681Y0101694D02*
X0278914Y0102461D01*
X0277380Y0102461D01*
X0276612Y0101694D01*
X0276612Y0098625D01*
X0281216Y0100159D02*
X0284285Y0100159D01*
X0284285Y0102461D02*
X0284285Y0097857D01*
X0285820Y0097857D02*
X0287355Y0097857D01*
X0286587Y0097857D02*
X0286587Y0102461D01*
X0285820Y0102461D02*
X0287355Y0102461D01*
X0288889Y0102461D02*
X0291191Y0102461D01*
X0291959Y0101694D01*
X0291959Y0100159D01*
X0291191Y0099392D01*
X0288889Y0099392D01*
X0288889Y0097857D02*
X0288889Y0102461D01*
X0293493Y0097090D02*
X0296563Y0097090D01*
X0298097Y0098625D02*
X0298864Y0097857D01*
X0300399Y0097857D01*
X0301166Y0098625D01*
X0301166Y0099392D01*
X0300399Y0100159D01*
X0299632Y0100159D01*
X0300399Y0100159D02*
X0301166Y0100927D01*
X0301166Y0101694D01*
X0300399Y0102461D01*
X0298864Y0102461D01*
X0298097Y0101694D01*
X0360234Y0102993D02*
X0360234Y0099924D01*
X0361002Y0099157D01*
X0362536Y0099157D01*
X0363304Y0099924D01*
X0364838Y0099157D02*
X0364838Y0103761D01*
X0363304Y0102993D02*
X0362536Y0103761D01*
X0361002Y0103761D01*
X0360234Y0102993D01*
X0364838Y0101459D02*
X0367907Y0101459D01*
X0367907Y0103761D02*
X0367907Y0099157D01*
X0369442Y0099157D02*
X0370977Y0099157D01*
X0370209Y0099157D02*
X0370209Y0103761D01*
X0369442Y0103761D02*
X0370977Y0103761D01*
X0372511Y0103761D02*
X0374813Y0103761D01*
X0375581Y0102993D01*
X0375581Y0101459D01*
X0374813Y0100691D01*
X0372511Y0100691D01*
X0372511Y0099157D02*
X0372511Y0103761D01*
X0377115Y0098389D02*
X0380185Y0098389D01*
X0384021Y0099157D02*
X0384021Y0103761D01*
X0381719Y0101459D01*
X0384789Y0101459D01*
X0320873Y0044037D02*
X0320106Y0044804D01*
X0318571Y0044804D01*
X0317804Y0044037D01*
X0317804Y0040967D01*
X0320873Y0044037D01*
X0320873Y0040967D01*
X0320106Y0040200D01*
X0318571Y0040200D01*
X0317804Y0040967D01*
X0316269Y0040967D02*
X0315502Y0040200D01*
X0313967Y0040200D01*
X0313200Y0040967D01*
X0314735Y0042502D02*
X0315502Y0042502D01*
X0316269Y0041735D01*
X0316269Y0040967D01*
X0315502Y0042502D02*
X0316269Y0043269D01*
X0316269Y0044037D01*
X0315502Y0044804D01*
X0313967Y0044804D01*
X0313200Y0044037D01*
X0283272Y0209324D02*
X0278669Y0209324D01*
X0280203Y0210858D01*
X0278669Y0212393D01*
X0283272Y0212393D01*
X0283272Y0213928D02*
X0278669Y0213928D01*
X0278669Y0216997D01*
X0278669Y0218531D02*
X0280203Y0220066D01*
X0278669Y0221601D01*
X0283272Y0221601D01*
X0282505Y0223135D02*
X0283272Y0223903D01*
X0283272Y0225437D01*
X0282505Y0226205D01*
X0281738Y0226205D01*
X0280970Y0225437D01*
X0280970Y0224670D01*
X0280970Y0225437D02*
X0280203Y0226205D01*
X0279436Y0226205D01*
X0278669Y0225437D01*
X0278669Y0223903D01*
X0279436Y0223135D01*
X0278669Y0218531D02*
X0283272Y0218531D01*
X0283272Y0216997D02*
X0283272Y0213928D01*
X0280970Y0213928D02*
X0280970Y0215462D01*
X0259773Y0225239D02*
X0256704Y0225239D01*
X0258238Y0225239D02*
X0258238Y0229843D01*
X0256704Y0228309D01*
X0342530Y0228309D02*
X0344065Y0229843D01*
X0344065Y0225239D01*
X0342530Y0225239D02*
X0345600Y0225239D01*
X0364495Y0225437D02*
X0366797Y0223135D01*
X0366797Y0226205D01*
X0369099Y0225437D02*
X0364495Y0225437D01*
X0364495Y0221601D02*
X0369099Y0221601D01*
X0369099Y0218531D02*
X0364495Y0218531D01*
X0366030Y0220066D01*
X0364495Y0221601D01*
X0364495Y0216997D02*
X0364495Y0213928D01*
X0369099Y0213928D01*
X0369099Y0216997D01*
X0366797Y0215462D02*
X0366797Y0213928D01*
X0364495Y0212393D02*
X0369099Y0212393D01*
X0369099Y0209324D02*
X0364495Y0209324D01*
X0366030Y0210858D01*
X0364495Y0212393D01*
X0159650Y0212393D02*
X0155046Y0212393D01*
X0156581Y0210858D01*
X0155046Y0209324D01*
X0159650Y0209324D01*
X0159650Y0213928D02*
X0155046Y0213928D01*
X0155046Y0216997D01*
X0155046Y0218531D02*
X0156581Y0220066D01*
X0155046Y0221601D01*
X0159650Y0221601D01*
X0159650Y0223135D02*
X0156581Y0226205D01*
X0155814Y0226205D01*
X0155046Y0225437D01*
X0155046Y0223903D01*
X0155814Y0223135D01*
X0159650Y0223135D02*
X0159650Y0226205D01*
X0159650Y0218531D02*
X0155046Y0218531D01*
X0159650Y0216997D02*
X0159650Y0213928D01*
X0157348Y0213928D02*
X0157348Y0215462D01*
X0136151Y0225239D02*
X0133081Y0225239D01*
X0134616Y0225239D02*
X0134616Y0229843D01*
X0133081Y0228309D01*
X0073824Y0226205D02*
X0073824Y0223135D01*
X0073824Y0221601D02*
X0069220Y0221601D01*
X0070754Y0220066D01*
X0069220Y0218531D01*
X0073824Y0218531D01*
X0073824Y0216997D02*
X0073824Y0213928D01*
X0069220Y0213928D01*
X0069220Y0216997D01*
X0071522Y0215462D02*
X0071522Y0213928D01*
X0069220Y0212393D02*
X0073824Y0212393D01*
X0073824Y0209324D02*
X0069220Y0209324D01*
X0070754Y0210858D01*
X0069220Y0212393D01*
X0070754Y0223135D02*
X0069220Y0224670D01*
X0073824Y0224670D01*
X0050324Y0225239D02*
X0047255Y0225239D01*
X0048789Y0225239D02*
X0048789Y0229843D01*
X0047255Y0228309D01*
X0032358Y0247700D02*
X0032358Y0252304D01*
X0030824Y0252304D02*
X0033893Y0252304D01*
X0029289Y0252304D02*
X0029289Y0247700D01*
X0026220Y0252304D01*
X0026220Y0247700D01*
X0024685Y0248467D02*
X0024685Y0251537D01*
X0023918Y0252304D01*
X0022383Y0252304D01*
X0021616Y0251537D01*
X0021616Y0248467D01*
X0022383Y0247700D01*
X0023918Y0247700D01*
X0024685Y0248467D01*
X0020081Y0247700D02*
X0018546Y0249235D01*
X0019314Y0249235D02*
X0017012Y0249235D01*
X0017012Y0247700D02*
X0017012Y0252304D01*
X0019314Y0252304D01*
X0020081Y0251537D01*
X0020081Y0250002D01*
X0019314Y0249235D01*
X0015477Y0252304D02*
X0012408Y0252304D01*
X0012408Y0247700D01*
X0010873Y0247700D02*
X0007804Y0250002D01*
X0010873Y0252304D01*
X0012408Y0250002D02*
X0013942Y0250002D01*
X0006269Y0252304D02*
X0003200Y0250002D01*
X0006269Y0247700D01*
M02*
