G75*
%MOIN*%
%OFA0B0*%
%FSLAX25Y25*%
%IPPOS*%
%LPD*%
%AMOC8*
5,1,8,0,0,1.08239X$1,22.5*
%
%ADD10C,0.01000*%
%ADD11C,0.00600*%
%ADD12C,0.00400*%
D10*
X0003000Y0050276D02*
X0003000Y0255000D01*
X0422291Y0255000D01*
X0422291Y0050276D01*
X0325835Y0050276D01*
X0325835Y0006969D01*
X0166386Y0006969D01*
X0166386Y0050276D01*
X0003000Y0050276D01*
D11*
X0145906Y0070788D02*
X0146974Y0069721D01*
X0151244Y0069721D01*
X0152312Y0070788D01*
X0152312Y0072923D01*
X0151244Y0073991D01*
X0149109Y0073991D02*
X0149109Y0071856D01*
X0149109Y0073991D02*
X0146974Y0073991D01*
X0145906Y0072923D01*
X0145906Y0070788D01*
X0146974Y0079563D02*
X0145906Y0080631D01*
X0145906Y0082766D01*
X0146974Y0083833D01*
X0148041Y0083833D01*
X0149109Y0082766D01*
X0149109Y0080631D01*
X0150177Y0079563D01*
X0151244Y0079563D01*
X0152312Y0080631D01*
X0152312Y0082766D01*
X0151244Y0083833D01*
D12*
X0176265Y0044804D02*
X0176265Y0040200D01*
X0174731Y0040200D02*
X0177800Y0040200D01*
X0177800Y0043269D02*
X0176265Y0044804D01*
X0310127Y0044037D02*
X0310127Y0040967D01*
X0310894Y0040200D01*
X0312429Y0040200D01*
X0313196Y0040967D01*
X0314731Y0040200D02*
X0317800Y0040200D01*
X0314731Y0043269D01*
X0314731Y0044037D01*
X0315498Y0044804D01*
X0317033Y0044804D01*
X0317800Y0044037D01*
X0313196Y0044037D02*
X0312429Y0044804D01*
X0310894Y0044804D01*
X0310127Y0044037D01*
X0310127Y0042502D02*
X0312429Y0042502D01*
X0313196Y0043269D01*
X0313196Y0044037D01*
M02*
