G75*
%MOIN*%
%OFA0B0*%
%FSLAX25Y25*%
%IPPOS*%
%LPD*%
%AMOC8*
5,1,8,0,0,1.08239X$1,22.5*
%
%ADD10C,0.01000*%
%ADD11R,0.07087X0.06299*%
%ADD12R,0.06004X0.02559*%
%ADD13R,0.08661X0.02362*%
%ADD14R,0.07874X0.06299*%
%ADD15R,0.02362X0.08661*%
%ADD16R,0.06299X0.07874*%
%ADD17R,0.04600X0.06300*%
D10*
X0003000Y0050276D02*
X0003000Y0255000D01*
X0422291Y0255000D01*
X0422291Y0050276D01*
X0325835Y0050276D01*
X0325835Y0006969D01*
X0166386Y0006969D01*
X0166386Y0050276D01*
X0003000Y0050276D01*
D11*
X0099457Y0237677D03*
X0099457Y0248701D03*
X0186228Y0248307D03*
X0186228Y0237283D03*
X0310244Y0237402D03*
X0310244Y0248425D03*
X0394890Y0248031D03*
X0394890Y0237008D03*
D12*
X0385724Y0138110D03*
X0385724Y0133110D03*
X0385724Y0128110D03*
X0385724Y0123110D03*
X0385724Y0118110D03*
X0385724Y0113110D03*
X0385724Y0108110D03*
X0364370Y0108110D03*
X0364370Y0113110D03*
X0364370Y0118110D03*
X0364370Y0123110D03*
X0364370Y0128110D03*
X0364370Y0133110D03*
X0364370Y0138110D03*
X0300134Y0138189D03*
X0300134Y0133189D03*
X0300134Y0128189D03*
X0300134Y0123189D03*
X0300134Y0118189D03*
X0300134Y0113189D03*
X0300134Y0108189D03*
X0278780Y0108189D03*
X0278780Y0113189D03*
X0278780Y0118189D03*
X0278780Y0123189D03*
X0278780Y0128189D03*
X0278780Y0133189D03*
X0278780Y0138189D03*
X0143835Y0138189D03*
X0143835Y0133189D03*
X0143835Y0128189D03*
X0143835Y0123189D03*
X0143835Y0118189D03*
X0143835Y0113189D03*
X0143835Y0108189D03*
X0122480Y0108189D03*
X0122480Y0113189D03*
X0122480Y0118189D03*
X0122480Y0123189D03*
X0122480Y0128189D03*
X0122480Y0133189D03*
X0122480Y0138189D03*
X0057614Y0138189D03*
X0057614Y0133189D03*
X0057614Y0128189D03*
X0057614Y0123189D03*
X0057614Y0118189D03*
X0057614Y0113189D03*
X0057614Y0108189D03*
X0036260Y0108189D03*
X0036260Y0113189D03*
X0036260Y0118189D03*
X0036260Y0123189D03*
X0036260Y0128189D03*
X0036260Y0133189D03*
X0036260Y0138189D03*
D13*
X0038827Y0152539D03*
X0038827Y0157539D03*
X0038827Y0162539D03*
X0038827Y0167539D03*
X0038827Y0172539D03*
X0038827Y0177539D03*
X0038827Y0182539D03*
X0038827Y0187539D03*
X0038827Y0192539D03*
X0038827Y0197539D03*
X0038827Y0202539D03*
X0038827Y0207539D03*
X0038827Y0212539D03*
X0038827Y0217539D03*
X0038827Y0222539D03*
X0038827Y0227539D03*
X0089220Y0227539D03*
X0089220Y0222539D03*
X0089220Y0217539D03*
X0089220Y0212539D03*
X0089220Y0207539D03*
X0089220Y0202539D03*
X0089220Y0197539D03*
X0089220Y0192539D03*
X0089220Y0187539D03*
X0089220Y0182539D03*
X0089220Y0177539D03*
X0089220Y0172539D03*
X0089220Y0167539D03*
X0089220Y0162539D03*
X0089220Y0157539D03*
X0089220Y0152539D03*
X0124654Y0152539D03*
X0124654Y0157539D03*
X0124654Y0162539D03*
X0124654Y0167539D03*
X0124654Y0172539D03*
X0124654Y0177539D03*
X0124654Y0182539D03*
X0124654Y0187539D03*
X0124654Y0192539D03*
X0124654Y0197539D03*
X0124654Y0202539D03*
X0124654Y0207539D03*
X0124654Y0212539D03*
X0124654Y0217539D03*
X0124654Y0222539D03*
X0124654Y0227539D03*
X0175047Y0227539D03*
X0175047Y0222539D03*
X0175047Y0217539D03*
X0175047Y0212539D03*
X0175047Y0207539D03*
X0175047Y0202539D03*
X0175047Y0197539D03*
X0175047Y0192539D03*
X0175047Y0187539D03*
X0175047Y0182539D03*
X0175047Y0177539D03*
X0175047Y0172539D03*
X0175047Y0167539D03*
X0175047Y0162539D03*
X0175047Y0157539D03*
X0175047Y0152539D03*
X0248276Y0152539D03*
X0248276Y0157539D03*
X0248276Y0162539D03*
X0248276Y0167539D03*
X0248276Y0172539D03*
X0248276Y0177539D03*
X0248276Y0182539D03*
X0248276Y0187539D03*
X0248276Y0192539D03*
X0248276Y0197539D03*
X0248276Y0202539D03*
X0248276Y0207539D03*
X0248276Y0212539D03*
X0248276Y0217539D03*
X0248276Y0222539D03*
X0248276Y0227539D03*
X0298669Y0227539D03*
X0298669Y0222539D03*
X0298669Y0217539D03*
X0298669Y0212539D03*
X0298669Y0207539D03*
X0298669Y0202539D03*
X0298669Y0197539D03*
X0298669Y0192539D03*
X0298669Y0187539D03*
X0298669Y0182539D03*
X0298669Y0177539D03*
X0298669Y0172539D03*
X0298669Y0167539D03*
X0298669Y0162539D03*
X0298669Y0157539D03*
X0298669Y0152539D03*
X0334102Y0152539D03*
X0334102Y0157539D03*
X0334102Y0162539D03*
X0334102Y0167539D03*
X0334102Y0172539D03*
X0334102Y0177539D03*
X0334102Y0182539D03*
X0334102Y0187539D03*
X0334102Y0192539D03*
X0334102Y0197539D03*
X0334102Y0202539D03*
X0334102Y0207539D03*
X0334102Y0212539D03*
X0334102Y0217539D03*
X0334102Y0222539D03*
X0334102Y0227539D03*
X0384496Y0227539D03*
X0384496Y0222539D03*
X0384496Y0217539D03*
X0384496Y0212539D03*
X0384496Y0207539D03*
X0384496Y0202539D03*
X0384496Y0197539D03*
X0384496Y0192539D03*
X0384496Y0187539D03*
X0384496Y0182539D03*
X0384496Y0177539D03*
X0384496Y0172539D03*
X0384496Y0167539D03*
X0384496Y0162539D03*
X0384496Y0157539D03*
X0384496Y0152539D03*
D14*
X0121701Y0083307D03*
X0121701Y0072283D03*
D15*
X0183768Y0102047D03*
X0188768Y0102047D03*
X0193768Y0102047D03*
X0198768Y0102047D03*
X0203768Y0102047D03*
X0208768Y0102047D03*
X0213768Y0102047D03*
X0218768Y0102047D03*
X0223768Y0102047D03*
X0228768Y0102047D03*
X0233768Y0102047D03*
X0238768Y0102047D03*
X0238768Y0138268D03*
X0233768Y0138268D03*
X0228768Y0138268D03*
X0223768Y0138268D03*
X0218768Y0138268D03*
X0213768Y0138268D03*
X0208768Y0138268D03*
X0203768Y0138268D03*
X0198768Y0138268D03*
X0193768Y0138268D03*
X0188768Y0138268D03*
X0183768Y0138268D03*
D16*
X0173866Y0115236D03*
X0162843Y0115236D03*
X0162843Y0101457D03*
X0173866Y0101457D03*
D17*
X0175291Y0138858D03*
X0169291Y0138858D03*
M02*
