G75*
%MOIN*%
%OFA0B0*%
%FSLAX25Y25*%
%IPPOS*%
%LPD*%
%AMOC8*
5,1,8,0,0,1.08239X$1,22.5*
%
%ADD10C,0.01000*%
%ADD11OC8,0.05200*%
%ADD12OC8,0.06000*%
%ADD13C,0.06000*%
%ADD14R,0.06000X0.25500*%
%ADD15C,0.00600*%
%ADD16OC8,0.03562*%
%ADD17C,0.03200*%
%ADD18C,0.02400*%
%ADD19C,0.02400*%
%ADD20C,0.01200*%
D10*
X0003000Y0050276D02*
X0003000Y0255000D01*
X0422291Y0255000D01*
X0422291Y0050276D01*
X0325835Y0050276D01*
X0325835Y0006969D01*
X0166386Y0006969D01*
X0166386Y0050276D01*
X0003000Y0050276D01*
D11*
X0335323Y0061220D03*
X0335323Y0081220D03*
D12*
X0313000Y0068031D03*
X0303000Y0068031D03*
X0293000Y0068031D03*
X0283000Y0068031D03*
X0273000Y0068031D03*
X0263000Y0068031D03*
X0253000Y0068031D03*
X0243000Y0068031D03*
X0233000Y0068031D03*
X0223000Y0068031D03*
X0213000Y0068031D03*
X0203000Y0068031D03*
X0193000Y0068031D03*
X0183000Y0068031D03*
X0173000Y0068031D03*
X0173000Y0058031D03*
X0183000Y0058031D03*
X0193000Y0058031D03*
X0203000Y0058031D03*
X0213000Y0058031D03*
X0223000Y0058031D03*
X0233000Y0058031D03*
X0243000Y0058031D03*
X0253000Y0058031D03*
X0263000Y0058031D03*
X0273000Y0058031D03*
X0283000Y0058031D03*
X0293000Y0058031D03*
X0303000Y0058031D03*
X0313000Y0058031D03*
D13*
X0141669Y0072795D02*
X0135669Y0072795D01*
X0135669Y0082795D02*
X0141669Y0082795D01*
X0022252Y0228535D02*
X0022252Y0234535D01*
X0012252Y0234535D02*
X0012252Y0228535D01*
X0403039Y0227921D02*
X0403039Y0221921D01*
X0413039Y0221921D02*
X0413039Y0227921D01*
D14*
X0315500Y0022500D03*
X0305500Y0022500D03*
X0295500Y0022500D03*
X0285500Y0022500D03*
X0275500Y0022500D03*
X0265500Y0022500D03*
X0255500Y0022500D03*
X0245500Y0022500D03*
X0235500Y0022500D03*
X0225500Y0022500D03*
X0215500Y0022500D03*
X0205500Y0022500D03*
X0195500Y0022500D03*
X0185500Y0022500D03*
X0175500Y0022500D03*
D15*
X0175331Y0022531D01*
X0173231Y0024631D01*
X0233231Y0024631D02*
X0235331Y0022531D01*
X0235500Y0022500D01*
X0233000Y0058031D02*
X0233231Y0058531D01*
X0237131Y0062431D01*
X0237131Y0069631D01*
X0231731Y0075031D01*
X0231731Y0102331D01*
X0253331Y0123931D01*
X0253931Y0123931D01*
X0258731Y0128731D01*
X0258731Y0131731D01*
X0269531Y0142531D01*
X0273431Y0142531D01*
X0286331Y0155431D01*
X0341531Y0155431D01*
X0343931Y0148231D02*
X0325631Y0148231D01*
X0318731Y0141331D01*
X0281831Y0141331D01*
X0270431Y0140431D02*
X0283631Y0127231D01*
X0290831Y0121831D02*
X0254231Y0121831D01*
X0256331Y0119431D02*
X0255431Y0118531D01*
X0255431Y0112231D01*
X0260531Y0107131D01*
X0257531Y0113131D02*
X0287531Y0113131D01*
X0308531Y0105331D02*
X0273131Y0069931D01*
X0273131Y0068131D01*
X0273000Y0068031D01*
X0274631Y0063931D02*
X0278831Y0068131D01*
X0278831Y0069631D01*
X0349931Y0140731D01*
X0354731Y0140731D01*
X0352331Y0142831D02*
X0350231Y0142831D01*
X0280031Y0072631D01*
X0278831Y0072631D01*
X0266831Y0068131D02*
X0341531Y0142831D01*
X0334331Y0144931D02*
X0374831Y0144931D01*
X0381131Y0151231D01*
X0381131Y0160831D01*
X0373931Y0168031D01*
X0373931Y0173731D01*
X0367931Y0179731D01*
X0328331Y0179731D01*
X0328331Y0180031D01*
X0326531Y0178231D01*
X0291731Y0178231D01*
X0289631Y0180331D01*
X0261731Y0180331D01*
X0259931Y0178531D01*
X0149231Y0178531D01*
X0145331Y0182431D01*
X0144131Y0182431D01*
X0147731Y0184831D02*
X0154631Y0184831D01*
X0156731Y0183931D02*
X0156731Y0199531D01*
X0155831Y0201631D02*
X0186131Y0201631D01*
X0199631Y0188131D01*
X0238631Y0188131D01*
X0254831Y0174631D02*
X0255131Y0174331D01*
X0254831Y0174631D02*
X0115931Y0174631D01*
X0114131Y0172831D01*
X0071531Y0172831D01*
X0076331Y0177631D02*
X0118331Y0177631D01*
X0145931Y0205231D01*
X0203531Y0205231D01*
X0205031Y0203731D01*
X0215231Y0203731D01*
X0218231Y0203731D01*
X0220331Y0205831D01*
X0277331Y0205831D01*
X0277631Y0205531D01*
X0278831Y0205531D01*
X0276731Y0204631D02*
X0273731Y0204631D01*
X0270731Y0201631D01*
X0208331Y0201631D01*
X0207431Y0199531D02*
X0202931Y0204031D01*
X0153431Y0204031D01*
X0152231Y0202831D01*
X0151031Y0202831D01*
X0154031Y0202831D02*
X0202331Y0202831D01*
X0212531Y0192631D01*
X0271331Y0192631D01*
X0327731Y0192631D01*
X0328931Y0195031D02*
X0326531Y0197431D01*
X0325031Y0197431D01*
X0323531Y0197431D01*
X0321431Y0199531D01*
X0272531Y0199531D01*
X0270731Y0197731D01*
X0212231Y0197731D01*
X0211031Y0199531D02*
X0211931Y0200431D01*
X0271631Y0200431D01*
X0273731Y0202531D01*
X0274631Y0202531D01*
X0277031Y0202531D01*
X0278831Y0200731D01*
X0323231Y0200731D01*
X0324431Y0202531D02*
X0327731Y0199231D01*
X0328931Y0195031D02*
X0365531Y0195031D01*
X0367631Y0197431D02*
X0375131Y0189931D01*
X0375131Y0168631D01*
X0382331Y0161431D01*
X0382331Y0148231D01*
X0377831Y0143731D01*
X0368831Y0143731D01*
X0293231Y0068131D01*
X0293000Y0068031D01*
X0294431Y0063931D02*
X0297731Y0067231D01*
X0297731Y0070831D01*
X0369431Y0142531D01*
X0378431Y0142531D01*
X0383531Y0147631D01*
X0383531Y0170431D01*
X0378731Y0175231D01*
X0373031Y0179431D02*
X0370031Y0182431D01*
X0307631Y0182431D01*
X0208331Y0182431D01*
X0208931Y0186031D02*
X0202631Y0179731D01*
X0149831Y0179731D01*
X0142031Y0187531D01*
X0148631Y0190231D02*
X0154631Y0190231D01*
X0156731Y0183931D02*
X0154631Y0181831D01*
X0143831Y0192631D02*
X0154031Y0202831D01*
X0155831Y0201631D02*
X0151931Y0197731D01*
X0169031Y0209731D02*
X0109331Y0209731D01*
X0082931Y0209731D01*
X0080831Y0211831D01*
X0080831Y0218431D01*
X0082331Y0219931D01*
X0242531Y0219931D01*
X0249731Y0222631D02*
X0242831Y0229531D01*
X0168731Y0229531D01*
X0166631Y0227431D01*
X0166631Y0222331D01*
X0115931Y0222331D01*
X0082931Y0222331D01*
X0043031Y0182431D01*
X0043031Y0137431D01*
X0111731Y0068731D01*
X0153731Y0068731D01*
X0164231Y0058231D01*
X0172631Y0058231D01*
X0173000Y0058031D01*
X0171431Y0063931D02*
X0169031Y0066331D01*
X0169031Y0079831D01*
X0171131Y0081931D01*
X0171131Y0083731D01*
X0161081Y0093781D01*
X0179531Y0112231D01*
X0181631Y0113131D02*
X0181631Y0076531D01*
X0173231Y0068131D01*
X0173000Y0068031D01*
X0171431Y0063931D02*
X0182831Y0063931D01*
X0188531Y0058231D01*
X0192431Y0058231D01*
X0193000Y0058031D01*
X0203000Y0058031D02*
X0203231Y0058531D01*
X0207131Y0062431D01*
X0207131Y0069631D01*
X0203831Y0072931D01*
X0203831Y0074131D01*
X0199031Y0074131D02*
X0199031Y0072031D01*
X0202931Y0068131D01*
X0203000Y0068031D01*
X0208931Y0072031D02*
X0212831Y0068131D01*
X0213000Y0068031D01*
X0217031Y0069631D02*
X0214031Y0072631D01*
X0214031Y0074131D01*
X0214031Y0088231D01*
X0254231Y0128431D01*
X0254231Y0129031D01*
X0256631Y0128431D02*
X0253331Y0125131D01*
X0252731Y0125131D01*
X0223931Y0096331D01*
X0223931Y0076831D01*
X0223931Y0072631D01*
X0226931Y0069631D01*
X0226931Y0062131D01*
X0223331Y0058531D01*
X0223000Y0058031D01*
X0217031Y0062431D02*
X0213131Y0058531D01*
X0213000Y0058031D01*
X0217031Y0062431D02*
X0217031Y0069631D01*
X0218831Y0072031D02*
X0222731Y0068131D01*
X0223000Y0068031D01*
X0218831Y0072031D02*
X0218831Y0074131D01*
X0208931Y0074131D02*
X0208931Y0072031D01*
X0208931Y0074131D02*
X0208931Y0086731D01*
X0216281Y0094081D01*
X0169331Y0141031D01*
X0169331Y0152731D01*
X0166331Y0155731D01*
X0166331Y0156331D01*
X0144131Y0156331D01*
X0142931Y0157531D01*
X0118331Y0157531D01*
X0115931Y0159631D02*
X0114131Y0157831D01*
X0056531Y0157831D01*
X0054431Y0156931D02*
X0054431Y0181531D01*
X0080531Y0207631D01*
X0118331Y0207631D01*
X0219131Y0207631D01*
X0219731Y0208231D01*
X0340331Y0208231D01*
X0328331Y0213631D02*
X0327731Y0214231D01*
X0272231Y0214231D01*
X0270431Y0212431D01*
X0266831Y0212431D01*
X0217031Y0212431D01*
X0214631Y0214831D01*
X0195131Y0214831D01*
X0193031Y0213931D02*
X0193031Y0217531D01*
X0229031Y0217531D01*
X0217931Y0214531D02*
X0267131Y0214531D01*
X0268931Y0216331D01*
X0271931Y0216331D01*
X0272231Y0216031D01*
X0307031Y0216031D01*
X0308831Y0217831D01*
X0340331Y0217831D01*
X0328331Y0213631D02*
X0356231Y0213631D01*
X0385931Y0183931D01*
X0385931Y0146431D01*
X0379631Y0140131D01*
X0370631Y0140131D01*
X0303131Y0072631D01*
X0303131Y0068131D01*
X0303000Y0068031D01*
X0298931Y0066631D02*
X0298931Y0070231D01*
X0370031Y0141331D01*
X0379031Y0141331D01*
X0384731Y0147031D01*
X0384731Y0183331D01*
X0361931Y0206131D01*
X0325631Y0206131D01*
X0324431Y0204931D01*
X0324431Y0202531D01*
X0326531Y0204031D02*
X0361031Y0204031D01*
X0367631Y0197431D01*
X0371531Y0190531D02*
X0325331Y0190531D01*
X0325031Y0190231D01*
X0211331Y0190231D01*
X0209231Y0192331D01*
X0198431Y0192331D01*
X0208931Y0186031D02*
X0267431Y0186031D01*
X0268931Y0187531D01*
X0325631Y0187531D01*
X0322631Y0195331D02*
X0320531Y0197431D01*
X0273431Y0197431D01*
X0278231Y0203131D02*
X0292331Y0203131D01*
X0278231Y0203131D02*
X0276731Y0204631D01*
X0270131Y0210331D02*
X0196631Y0210331D01*
X0193031Y0213931D01*
X0193031Y0217531D02*
X0118031Y0217531D01*
X0118331Y0216931D01*
X0117731Y0217531D01*
X0082931Y0217531D01*
X0082931Y0212731D02*
X0118331Y0212731D01*
X0118331Y0202531D02*
X0080531Y0202531D01*
X0080531Y0197731D02*
X0118331Y0197731D01*
X0118331Y0194431D02*
X0116531Y0192631D01*
X0080531Y0192631D01*
X0080531Y0187531D02*
X0118331Y0187531D01*
X0116531Y0182431D02*
X0118331Y0180631D01*
X0116531Y0182431D02*
X0080531Y0182431D01*
X0066431Y0167731D02*
X0114131Y0167731D01*
X0115931Y0169531D01*
X0241931Y0169531D01*
X0256031Y0172231D02*
X0181631Y0172231D01*
X0181331Y0172531D01*
X0118331Y0172531D01*
X0118331Y0167431D02*
X0141131Y0167431D01*
X0141131Y0162931D01*
X0144431Y0159631D01*
X0146531Y0159631D01*
X0147431Y0160531D01*
X0169631Y0160531D01*
X0171731Y0158431D01*
X0171731Y0142531D01*
X0203831Y0110431D01*
X0222431Y0110431D01*
X0214331Y0108331D02*
X0204131Y0108331D01*
X0170531Y0141931D01*
X0170531Y0156631D01*
X0168731Y0158431D01*
X0143831Y0158431D01*
X0139931Y0162331D01*
X0118331Y0162331D01*
X0115931Y0164431D02*
X0114131Y0162631D01*
X0061331Y0162631D01*
X0054431Y0156931D02*
X0060731Y0150631D01*
X0154631Y0150631D01*
X0192731Y0112531D01*
X0192731Y0068131D01*
X0193000Y0068031D01*
X0199031Y0074131D02*
X0199031Y0109531D01*
X0166331Y0142231D01*
X0166331Y0152731D01*
X0118331Y0152731D01*
X0117431Y0138331D02*
X0156431Y0138331D01*
X0176981Y0117781D01*
X0180731Y0121531D01*
X0176981Y0117781D02*
X0181631Y0113131D01*
X0159131Y0121531D02*
X0148331Y0110731D01*
X0141431Y0113431D02*
X0139031Y0113431D01*
X0070931Y0113431D01*
X0045131Y0138331D02*
X0117431Y0138331D01*
X0127331Y0136231D02*
X0127331Y0127231D01*
X0141431Y0113431D02*
X0161081Y0093781D01*
X0169031Y0082831D02*
X0138731Y0082831D01*
X0138669Y0082795D01*
X0204731Y0112531D02*
X0206081Y0113881D01*
X0189131Y0130831D01*
X0189131Y0142831D01*
X0170231Y0161731D01*
X0145631Y0161731D01*
X0143231Y0163831D02*
X0184031Y0163831D01*
X0186731Y0161131D01*
X0241931Y0161131D01*
X0252131Y0149431D02*
X0263831Y0161131D01*
X0264731Y0163231D02*
X0187631Y0163231D01*
X0190031Y0165331D02*
X0190931Y0164431D01*
X0327731Y0164431D01*
X0372731Y0164431D01*
X0372131Y0168031D02*
X0372131Y0168631D01*
X0368231Y0172531D01*
X0366131Y0172531D01*
X0286931Y0172531D01*
X0256331Y0172531D01*
X0256031Y0172231D01*
X0270131Y0170131D02*
X0278531Y0170131D01*
X0281831Y0167431D02*
X0366131Y0167431D01*
X0372131Y0168031D02*
X0379931Y0160231D01*
X0379931Y0151831D01*
X0374231Y0146131D01*
X0325331Y0146131D01*
X0247331Y0068131D01*
X0243131Y0068131D01*
X0243000Y0068031D01*
X0242831Y0068131D01*
X0233831Y0077131D01*
X0233831Y0086731D01*
X0229031Y0081931D02*
X0229031Y0072031D01*
X0232931Y0068131D01*
X0233000Y0068031D01*
X0243000Y0058031D02*
X0243431Y0058231D01*
X0247631Y0058231D01*
X0253331Y0063931D01*
X0274631Y0063931D01*
X0280331Y0062731D02*
X0281531Y0063931D01*
X0294431Y0063931D01*
X0295031Y0062731D02*
X0298931Y0066631D01*
X0303131Y0063931D02*
X0304631Y0063931D01*
X0308831Y0068131D01*
X0308831Y0075331D01*
X0369131Y0135631D01*
X0369431Y0133531D02*
X0374831Y0133531D01*
X0387131Y0145831D01*
X0387131Y0184531D01*
X0355931Y0215731D01*
X0316631Y0227431D02*
X0306431Y0217231D01*
X0274031Y0217231D01*
X0272831Y0218431D01*
X0269231Y0218431D01*
X0266531Y0215731D01*
X0253631Y0215731D01*
X0241931Y0227431D01*
X0241931Y0227131D01*
X0241331Y0226531D01*
X0168731Y0226531D01*
X0168731Y0222331D02*
X0166631Y0222331D01*
X0166331Y0214831D02*
X0175931Y0214831D01*
X0180731Y0210031D01*
X0207431Y0199531D02*
X0211031Y0199531D01*
X0249731Y0222631D02*
X0267431Y0222631D01*
X0271931Y0212131D02*
X0270131Y0210331D01*
X0271931Y0212131D02*
X0307631Y0212131D01*
X0281831Y0167431D02*
X0168731Y0167431D01*
X0141131Y0167431D01*
X0191231Y0132031D02*
X0205331Y0146131D01*
X0258731Y0146131D01*
X0261431Y0144031D02*
X0236231Y0144031D01*
X0206081Y0113881D01*
X0218831Y0129631D02*
X0216431Y0132031D01*
X0204431Y0132031D01*
X0254231Y0139831D02*
X0259031Y0139831D01*
X0278831Y0159631D01*
X0281831Y0159631D01*
X0282731Y0158731D01*
X0284531Y0158731D01*
X0288131Y0162331D01*
X0304931Y0162331D01*
X0283631Y0160831D02*
X0278231Y0160831D01*
X0261431Y0144031D01*
X0256631Y0131431D02*
X0280631Y0155431D01*
X0283331Y0155431D01*
X0280931Y0157531D02*
X0279731Y0157531D01*
X0216281Y0094081D01*
X0253031Y0068131D02*
X0253000Y0068031D01*
X0253031Y0068131D02*
X0257531Y0068131D01*
X0334331Y0144931D01*
X0327731Y0152731D02*
X0377831Y0152731D01*
X0366131Y0157531D02*
X0280931Y0157531D01*
X0275531Y0161131D02*
X0266831Y0161131D01*
X0264731Y0163231D01*
X0256631Y0131431D02*
X0256631Y0131131D01*
X0256631Y0128431D01*
X0331631Y0095731D02*
X0369431Y0133531D01*
X0369131Y0130231D02*
X0369131Y0118231D01*
X0369431Y0117931D01*
X0359831Y0105331D02*
X0390131Y0135631D01*
X0390131Y0180031D01*
X0396731Y0138031D02*
X0412449Y0138031D01*
X0331631Y0095731D02*
X0331631Y0081031D01*
X0314531Y0063931D01*
X0313331Y0063931D01*
X0307631Y0058231D01*
X0303431Y0058231D01*
X0303000Y0058031D01*
X0297431Y0058231D02*
X0303131Y0063931D01*
X0295031Y0062731D02*
X0282131Y0062731D01*
X0277631Y0058231D01*
X0273431Y0058231D01*
X0273000Y0058031D01*
X0280331Y0062731D02*
X0262031Y0062731D01*
X0257831Y0058531D01*
X0253331Y0058531D01*
X0253000Y0058031D01*
X0263000Y0068031D02*
X0263231Y0068131D01*
X0266831Y0068131D01*
X0293000Y0058031D02*
X0293531Y0058231D01*
X0297431Y0058231D01*
X0312731Y0068131D02*
X0313000Y0068031D01*
X0335323Y0081220D02*
X0335531Y0081331D01*
X0054431Y0141331D02*
X0045131Y0141331D01*
X0022331Y0231331D02*
X0022252Y0231535D01*
D16*
X0162449Y0071929D03*
X0154575Y0064055D03*
X0111268Y0064055D03*
X0022252Y0064055D03*
D17*
X0111268Y0064055D01*
X0154575Y0064055D01*
X0313000Y0058031D02*
X0334102Y0060000D01*
X0335323Y0061220D01*
X0412449Y0060118D01*
X0412449Y0138031D01*
X0412449Y0219567D01*
X0413039Y0224921D01*
X0314024Y0060000D02*
X0314024Y0022717D01*
X0315500Y0022717D01*
X0315500Y0022500D01*
X0313000Y0058031D02*
X0314024Y0060000D01*
D18*
X0314078Y0058032D02*
X0318200Y0058032D01*
X0318200Y0060185D01*
X0317816Y0060569D01*
X0331945Y0074699D01*
X0332423Y0074220D01*
X0338222Y0074220D01*
X0342323Y0078321D01*
X0342323Y0084120D01*
X0338222Y0088220D01*
X0336331Y0088220D01*
X0336331Y0093785D01*
X0364431Y0121885D01*
X0364431Y0120494D01*
X0363831Y0119045D01*
X0363831Y0116818D01*
X0364077Y0116224D01*
X0358785Y0110931D01*
X0358718Y0110931D01*
X0356659Y0110079D01*
X0355084Y0108504D01*
X0354231Y0106445D01*
X0354231Y0104218D01*
X0355084Y0102159D01*
X0356659Y0100584D01*
X0358718Y0099731D01*
X0360945Y0099731D01*
X0363004Y0100584D01*
X0364579Y0102159D01*
X0365431Y0104218D01*
X0365431Y0104285D01*
X0392794Y0131647D01*
X0394116Y0132969D01*
X0394831Y0134697D01*
X0394831Y0176812D01*
X0394879Y0176859D01*
X0395731Y0178918D01*
X0395731Y0181145D01*
X0394879Y0183204D01*
X0393304Y0184779D01*
X0391831Y0185389D01*
X0391831Y0185466D01*
X0391116Y0187194D01*
X0361531Y0216778D01*
X0361531Y0216845D01*
X0360679Y0218904D01*
X0359104Y0220479D01*
X0357045Y0221331D01*
X0354818Y0221331D01*
X0352759Y0220479D01*
X0351184Y0218904D01*
X0350947Y0218331D01*
X0345931Y0218331D01*
X0345931Y0218945D01*
X0345079Y0221004D01*
X0343504Y0222579D01*
X0341445Y0223431D01*
X0339218Y0223431D01*
X0337159Y0222579D01*
X0337112Y0222531D01*
X0319435Y0222531D01*
X0319804Y0222684D01*
X0321379Y0224259D01*
X0322231Y0226318D01*
X0322231Y0228545D01*
X0321379Y0230604D01*
X0319804Y0232179D01*
X0317745Y0233031D01*
X0315518Y0233031D01*
X0313459Y0232179D01*
X0311884Y0230604D01*
X0311031Y0228545D01*
X0311031Y0228478D01*
X0304485Y0221931D01*
X0275978Y0221931D01*
X0275494Y0222416D01*
X0273766Y0223131D01*
X0273031Y0223131D01*
X0273031Y0223745D01*
X0272179Y0225804D01*
X0270604Y0227379D01*
X0268545Y0228231D01*
X0266318Y0228231D01*
X0264259Y0227379D01*
X0264212Y0227331D01*
X0251678Y0227331D01*
X0245494Y0233516D01*
X0243766Y0234231D01*
X0167797Y0234231D01*
X0166069Y0233516D01*
X0163969Y0231416D01*
X0162647Y0230094D01*
X0161931Y0228366D01*
X0161931Y0227031D01*
X0119151Y0227031D01*
X0119104Y0227079D01*
X0117045Y0227931D01*
X0114818Y0227931D01*
X0112759Y0227079D01*
X0112712Y0227031D01*
X0081997Y0227031D01*
X0080269Y0226316D01*
X0078947Y0224994D01*
X0039047Y0185094D01*
X0038331Y0183366D01*
X0038331Y0136497D01*
X0039047Y0134769D01*
X0040369Y0133447D01*
X0103761Y0070055D01*
X0024993Y0070055D01*
X0024812Y0070236D01*
X0019692Y0070236D01*
X0016071Y0066615D01*
X0016071Y0061495D01*
X0019692Y0057874D01*
X0024812Y0057874D01*
X0024993Y0058055D01*
X0108526Y0058055D01*
X0108707Y0057874D01*
X0113828Y0057874D01*
X0114009Y0058055D01*
X0151833Y0058055D01*
X0152015Y0057874D01*
X0157135Y0057874D01*
X0157539Y0058278D01*
X0160641Y0055176D01*
X0007900Y0055176D01*
X0007900Y0225679D01*
X0008286Y0225148D01*
X0008864Y0224569D01*
X0009527Y0224088D01*
X0010256Y0223716D01*
X0011034Y0223463D01*
X0011843Y0223335D01*
X0012252Y0223335D01*
X0012661Y0223335D01*
X0013470Y0223463D01*
X0014248Y0223716D01*
X0014977Y0224088D01*
X0015640Y0224569D01*
X0015813Y0224743D01*
X0015979Y0224344D01*
X0018060Y0222262D01*
X0020780Y0221135D01*
X0023724Y0221135D01*
X0026444Y0222262D01*
X0028525Y0224344D01*
X0029652Y0227063D01*
X0029652Y0236007D01*
X0028525Y0238727D01*
X0026444Y0240809D01*
X0023724Y0241935D01*
X0020780Y0241935D01*
X0018060Y0240809D01*
X0015979Y0238727D01*
X0015813Y0238328D01*
X0015640Y0238502D01*
X0014977Y0238983D01*
X0014248Y0239354D01*
X0013470Y0239607D01*
X0012661Y0239735D01*
X0012252Y0239735D01*
X0012252Y0231536D01*
X0012252Y0231536D01*
X0012252Y0239735D01*
X0011843Y0239735D01*
X0011034Y0239607D01*
X0010256Y0239354D01*
X0009527Y0238983D01*
X0008864Y0238502D01*
X0008286Y0237923D01*
X0007900Y0237392D01*
X0007900Y0250100D01*
X0417391Y0250100D01*
X0417391Y0230778D01*
X0417006Y0231309D01*
X0416427Y0231888D01*
X0415765Y0232369D01*
X0415035Y0232740D01*
X0414257Y0232993D01*
X0413449Y0233121D01*
X0413039Y0233121D01*
X0412630Y0233121D01*
X0411822Y0232993D01*
X0411043Y0232740D01*
X0410314Y0232369D01*
X0409652Y0231888D01*
X0409478Y0231714D01*
X0409313Y0232113D01*
X0407231Y0234195D01*
X0404511Y0235321D01*
X0401567Y0235321D01*
X0398848Y0234195D01*
X0396766Y0232113D01*
X0395639Y0229393D01*
X0395639Y0220449D01*
X0396766Y0217729D01*
X0398848Y0215648D01*
X0401567Y0214521D01*
X0404511Y0214521D01*
X0407231Y0215648D01*
X0409313Y0217729D01*
X0409478Y0218129D01*
X0409652Y0217955D01*
X0410314Y0217474D01*
X0411043Y0217102D01*
X0411822Y0216849D01*
X0412630Y0216721D01*
X0413039Y0216721D01*
X0413039Y0224921D01*
X0413039Y0224921D01*
X0413039Y0216721D01*
X0413449Y0216721D01*
X0414257Y0216849D01*
X0415035Y0217102D01*
X0415765Y0217474D01*
X0416427Y0217955D01*
X0417006Y0218534D01*
X0417391Y0219064D01*
X0417391Y0055176D01*
X0324860Y0055176D01*
X0323059Y0054430D01*
X0321681Y0053051D01*
X0320935Y0051250D01*
X0320935Y0050276D01*
X0308000Y0050276D01*
X0308000Y0052566D01*
X0309247Y0053813D01*
X0309683Y0053994D01*
X0310846Y0052831D01*
X0313000Y0052831D01*
X0315154Y0052831D01*
X0318200Y0055878D01*
X0318200Y0058031D01*
X0314078Y0058031D01*
X0314078Y0058032D01*
X0313000Y0056953D02*
X0313000Y0052831D01*
X0313000Y0056953D01*
X0313000Y0056953D01*
X0313000Y0055799D02*
X0313000Y0055799D01*
X0313000Y0053400D02*
X0313000Y0053400D01*
X0315723Y0053400D02*
X0322030Y0053400D01*
X0320935Y0051002D02*
X0308000Y0051002D01*
X0308834Y0053400D02*
X0310277Y0053400D01*
X0318121Y0055799D02*
X0417391Y0055799D01*
X0417391Y0058197D02*
X0339088Y0058197D01*
X0340123Y0059232D02*
X0340123Y0061220D01*
X0335323Y0061220D01*
X0335323Y0056420D01*
X0337311Y0056420D01*
X0340123Y0059232D01*
X0340123Y0060596D02*
X0417391Y0060596D01*
X0417391Y0062994D02*
X0340123Y0062994D01*
X0340123Y0063209D02*
X0337311Y0066020D01*
X0335323Y0066020D01*
X0335323Y0061221D01*
X0335323Y0061221D01*
X0335323Y0066020D01*
X0333335Y0066020D01*
X0330523Y0063209D01*
X0330523Y0061221D01*
X0335323Y0061221D01*
X0340123Y0061221D01*
X0340123Y0063209D01*
X0337939Y0065393D02*
X0417391Y0065393D01*
X0417391Y0067791D02*
X0325038Y0067791D01*
X0322640Y0065393D02*
X0332707Y0065393D01*
X0335323Y0065393D02*
X0335323Y0065393D01*
X0335323Y0062994D02*
X0335323Y0062994D01*
X0335323Y0061221D02*
X0335323Y0061220D01*
X0335323Y0061220D01*
X0335323Y0061221D01*
X0335323Y0061220D02*
X0330523Y0061220D01*
X0330523Y0059232D01*
X0333335Y0056420D01*
X0335323Y0056420D01*
X0335323Y0061220D01*
X0335323Y0060596D02*
X0335323Y0060596D01*
X0335323Y0058197D02*
X0335323Y0058197D01*
X0331558Y0058197D02*
X0318200Y0058197D01*
X0317843Y0060596D02*
X0330523Y0060596D01*
X0330523Y0062994D02*
X0320241Y0062994D01*
X0327437Y0070190D02*
X0417391Y0070190D01*
X0417391Y0072588D02*
X0329835Y0072588D01*
X0338989Y0074987D02*
X0417391Y0074987D01*
X0417391Y0077385D02*
X0341387Y0077385D01*
X0342323Y0079784D02*
X0417391Y0079784D01*
X0417391Y0082182D02*
X0342323Y0082182D01*
X0341862Y0084581D02*
X0417391Y0084581D01*
X0417391Y0086979D02*
X0339463Y0086979D01*
X0336331Y0089378D02*
X0417391Y0089378D01*
X0417391Y0091776D02*
X0336331Y0091776D01*
X0336722Y0094175D02*
X0417391Y0094175D01*
X0417391Y0096573D02*
X0339120Y0096573D01*
X0341519Y0098972D02*
X0417391Y0098972D01*
X0417391Y0101370D02*
X0363790Y0101370D01*
X0365246Y0103769D02*
X0417391Y0103769D01*
X0417391Y0106167D02*
X0367314Y0106167D01*
X0369713Y0108566D02*
X0417391Y0108566D01*
X0417391Y0110965D02*
X0372111Y0110965D01*
X0374510Y0113363D02*
X0417391Y0113363D01*
X0417391Y0115762D02*
X0376908Y0115762D01*
X0379307Y0118160D02*
X0417391Y0118160D01*
X0417391Y0120559D02*
X0381705Y0120559D01*
X0384104Y0122957D02*
X0417391Y0122957D01*
X0417391Y0125356D02*
X0386502Y0125356D01*
X0388901Y0127754D02*
X0417391Y0127754D01*
X0417391Y0130153D02*
X0391299Y0130153D01*
X0393698Y0132551D02*
X0417391Y0132551D01*
X0417391Y0134950D02*
X0394831Y0134950D01*
X0394831Y0137348D02*
X0417391Y0137348D01*
X0417391Y0139747D02*
X0394831Y0139747D01*
X0394831Y0142145D02*
X0417391Y0142145D01*
X0417391Y0144544D02*
X0394831Y0144544D01*
X0394831Y0146942D02*
X0417391Y0146942D01*
X0417391Y0149341D02*
X0394831Y0149341D01*
X0394831Y0151739D02*
X0417391Y0151739D01*
X0417391Y0154138D02*
X0394831Y0154138D01*
X0394831Y0156536D02*
X0417391Y0156536D01*
X0417391Y0158935D02*
X0394831Y0158935D01*
X0394831Y0161333D02*
X0417391Y0161333D01*
X0417391Y0163732D02*
X0394831Y0163732D01*
X0394831Y0166130D02*
X0417391Y0166130D01*
X0417391Y0168529D02*
X0394831Y0168529D01*
X0394831Y0170927D02*
X0417391Y0170927D01*
X0417391Y0173326D02*
X0394831Y0173326D01*
X0394831Y0175724D02*
X0417391Y0175724D01*
X0417391Y0178123D02*
X0395402Y0178123D01*
X0395731Y0180521D02*
X0417391Y0180521D01*
X0417391Y0182920D02*
X0394996Y0182920D01*
X0392001Y0185318D02*
X0417391Y0185318D01*
X0417391Y0187717D02*
X0390593Y0187717D01*
X0388194Y0190115D02*
X0417391Y0190115D01*
X0417391Y0192514D02*
X0385796Y0192514D01*
X0383397Y0194912D02*
X0417391Y0194912D01*
X0417391Y0197311D02*
X0380999Y0197311D01*
X0378600Y0199709D02*
X0417391Y0199709D01*
X0417391Y0202108D02*
X0376202Y0202108D01*
X0373803Y0204506D02*
X0417391Y0204506D01*
X0417391Y0206905D02*
X0371405Y0206905D01*
X0369006Y0209303D02*
X0417391Y0209303D01*
X0417391Y0211702D02*
X0366608Y0211702D01*
X0364209Y0214100D02*
X0417391Y0214100D01*
X0417391Y0216499D02*
X0408082Y0216499D01*
X0413039Y0218898D02*
X0413039Y0218898D01*
X0413039Y0221296D02*
X0413039Y0221296D01*
X0413039Y0223695D02*
X0413039Y0223695D01*
X0413039Y0224921D02*
X0413039Y0233121D01*
X0413039Y0224921D01*
X0413039Y0224921D01*
X0413039Y0226093D02*
X0413039Y0226093D01*
X0413039Y0228492D02*
X0413039Y0228492D01*
X0413039Y0230890D02*
X0413039Y0230890D01*
X0417310Y0230890D02*
X0417391Y0230890D01*
X0417391Y0233289D02*
X0408137Y0233289D01*
X0417391Y0235687D02*
X0029652Y0235687D01*
X0029652Y0233289D02*
X0165842Y0233289D01*
X0163969Y0231416D02*
X0163969Y0231416D01*
X0163443Y0230890D02*
X0029652Y0230890D01*
X0029652Y0228492D02*
X0161983Y0228492D01*
X0080046Y0226093D02*
X0029250Y0226093D01*
X0027876Y0223695D02*
X0077648Y0223695D01*
X0075249Y0221296D02*
X0024112Y0221296D01*
X0020392Y0221296D02*
X0007900Y0221296D01*
X0007900Y0218898D02*
X0072851Y0218898D01*
X0070452Y0216499D02*
X0007900Y0216499D01*
X0007900Y0214100D02*
X0068054Y0214100D01*
X0065655Y0211702D02*
X0007900Y0211702D01*
X0007900Y0209303D02*
X0063257Y0209303D01*
X0060858Y0206905D02*
X0007900Y0206905D01*
X0007900Y0204506D02*
X0058460Y0204506D01*
X0056061Y0202108D02*
X0007900Y0202108D01*
X0007900Y0199709D02*
X0053663Y0199709D01*
X0051264Y0197311D02*
X0007900Y0197311D01*
X0007900Y0194912D02*
X0048866Y0194912D01*
X0046467Y0192514D02*
X0007900Y0192514D01*
X0007900Y0190115D02*
X0044069Y0190115D01*
X0041670Y0187717D02*
X0007900Y0187717D01*
X0007900Y0185318D02*
X0039272Y0185318D01*
X0038331Y0182920D02*
X0007900Y0182920D01*
X0007900Y0180521D02*
X0038331Y0180521D01*
X0038331Y0178123D02*
X0007900Y0178123D01*
X0007900Y0175724D02*
X0038331Y0175724D01*
X0038331Y0173326D02*
X0007900Y0173326D01*
X0007900Y0170927D02*
X0038331Y0170927D01*
X0038331Y0168529D02*
X0007900Y0168529D01*
X0007900Y0166130D02*
X0038331Y0166130D01*
X0038331Y0163732D02*
X0007900Y0163732D01*
X0007900Y0161333D02*
X0038331Y0161333D01*
X0038331Y0158935D02*
X0007900Y0158935D01*
X0007900Y0156536D02*
X0038331Y0156536D01*
X0038331Y0154138D02*
X0007900Y0154138D01*
X0007900Y0151739D02*
X0038331Y0151739D01*
X0038331Y0149341D02*
X0007900Y0149341D01*
X0007900Y0146942D02*
X0038331Y0146942D01*
X0038331Y0144544D02*
X0007900Y0144544D01*
X0007900Y0142145D02*
X0038331Y0142145D01*
X0038331Y0139747D02*
X0007900Y0139747D01*
X0007900Y0137348D02*
X0038331Y0137348D01*
X0038972Y0134950D02*
X0007900Y0134950D01*
X0007900Y0132551D02*
X0041265Y0132551D01*
X0043664Y0130153D02*
X0007900Y0130153D01*
X0007900Y0127754D02*
X0046062Y0127754D01*
X0048461Y0125356D02*
X0007900Y0125356D01*
X0007900Y0122957D02*
X0050859Y0122957D01*
X0053258Y0120559D02*
X0007900Y0120559D01*
X0007900Y0118160D02*
X0055656Y0118160D01*
X0058055Y0115762D02*
X0007900Y0115762D01*
X0007900Y0113363D02*
X0060453Y0113363D01*
X0062852Y0110965D02*
X0007900Y0110965D01*
X0007900Y0108566D02*
X0065250Y0108566D01*
X0067649Y0106167D02*
X0007900Y0106167D01*
X0007900Y0103769D02*
X0070047Y0103769D01*
X0072446Y0101370D02*
X0007900Y0101370D01*
X0007900Y0098972D02*
X0074844Y0098972D01*
X0077243Y0096573D02*
X0007900Y0096573D01*
X0007900Y0094175D02*
X0079641Y0094175D01*
X0082040Y0091776D02*
X0007900Y0091776D01*
X0007900Y0089378D02*
X0084438Y0089378D01*
X0086837Y0086979D02*
X0007900Y0086979D01*
X0007900Y0084581D02*
X0089235Y0084581D01*
X0091634Y0082182D02*
X0007900Y0082182D01*
X0007900Y0079784D02*
X0094032Y0079784D01*
X0096431Y0077385D02*
X0007900Y0077385D01*
X0007900Y0074987D02*
X0098829Y0074987D01*
X0101228Y0072588D02*
X0007900Y0072588D01*
X0007900Y0070190D02*
X0019645Y0070190D01*
X0017247Y0067791D02*
X0007900Y0067791D01*
X0007900Y0065393D02*
X0016071Y0065393D01*
X0016071Y0062994D02*
X0007900Y0062994D01*
X0007900Y0060596D02*
X0016970Y0060596D01*
X0019368Y0058197D02*
X0007900Y0058197D01*
X0007900Y0055799D02*
X0160017Y0055799D01*
X0157619Y0058197D02*
X0157458Y0058197D01*
X0164769Y0064341D02*
X0157716Y0071394D01*
X0156394Y0072716D01*
X0154666Y0073431D01*
X0146833Y0073431D01*
X0146741Y0074013D01*
X0146488Y0074791D01*
X0146117Y0075521D01*
X0145636Y0076183D01*
X0145462Y0076357D01*
X0145861Y0076522D01*
X0147471Y0078131D01*
X0164331Y0078131D01*
X0164331Y0065397D01*
X0164769Y0064341D01*
X0164333Y0065393D02*
X0163717Y0065393D01*
X0164331Y0067791D02*
X0161318Y0067791D01*
X0158920Y0070190D02*
X0164331Y0070190D01*
X0164331Y0072588D02*
X0156521Y0072588D01*
X0162449Y0071929D02*
X0139535Y0071929D01*
X0138669Y0072795D01*
X0146389Y0074987D02*
X0164331Y0074987D01*
X0164331Y0077385D02*
X0146725Y0077385D01*
X0103626Y0070190D02*
X0024859Y0070190D01*
X0012252Y0223335D02*
X0012252Y0231535D01*
X0012252Y0231535D01*
X0012252Y0223335D01*
X0012252Y0223695D02*
X0012252Y0223695D01*
X0014181Y0223695D02*
X0016628Y0223695D01*
X0012252Y0226093D02*
X0012252Y0226093D01*
X0012252Y0228492D02*
X0012252Y0228492D01*
X0012252Y0230890D02*
X0012252Y0230890D01*
X0012252Y0233289D02*
X0012252Y0233289D01*
X0012252Y0235687D02*
X0012252Y0235687D01*
X0012252Y0238086D02*
X0012252Y0238086D01*
X0008448Y0238086D02*
X0007900Y0238086D01*
X0007900Y0240484D02*
X0017735Y0240484D01*
X0026768Y0240484D02*
X0417391Y0240484D01*
X0417391Y0238086D02*
X0028791Y0238086D01*
X0007900Y0242883D02*
X0417391Y0242883D01*
X0417391Y0245281D02*
X0007900Y0245281D01*
X0007900Y0247680D02*
X0417391Y0247680D01*
X0417391Y0250078D02*
X0007900Y0250078D01*
X0007900Y0223695D02*
X0010323Y0223695D01*
X0245721Y0233289D02*
X0397942Y0233289D01*
X0396259Y0230890D02*
X0321092Y0230890D01*
X0322231Y0228492D02*
X0395639Y0228492D01*
X0395639Y0226093D02*
X0322138Y0226093D01*
X0320814Y0223695D02*
X0395639Y0223695D01*
X0395639Y0221296D02*
X0357131Y0221296D01*
X0354732Y0221296D02*
X0344787Y0221296D01*
X0345931Y0218898D02*
X0351182Y0218898D01*
X0360681Y0218898D02*
X0396282Y0218898D01*
X0397996Y0216499D02*
X0361811Y0216499D01*
X0312170Y0230890D02*
X0248120Y0230890D01*
X0250518Y0228492D02*
X0311031Y0228492D01*
X0308646Y0226093D02*
X0271890Y0226093D01*
X0273031Y0223695D02*
X0306248Y0223695D01*
X0417270Y0218898D02*
X0417391Y0218898D01*
X0364431Y0120559D02*
X0363105Y0120559D01*
X0363831Y0118160D02*
X0360707Y0118160D01*
X0358308Y0115762D02*
X0363615Y0115762D01*
X0361216Y0113363D02*
X0355910Y0113363D01*
X0353511Y0110965D02*
X0358818Y0110965D01*
X0355146Y0108566D02*
X0351113Y0108566D01*
X0348714Y0106167D02*
X0354231Y0106167D01*
X0354417Y0103769D02*
X0346316Y0103769D01*
X0343917Y0101370D02*
X0355873Y0101370D01*
D19*
X0359831Y0105331D03*
X0369431Y0117931D03*
X0369131Y0130231D03*
X0369131Y0135631D03*
X0354731Y0140731D03*
X0352331Y0142831D03*
X0343931Y0148231D03*
X0341531Y0155431D03*
X0327731Y0152731D03*
X0341531Y0142831D03*
X0366131Y0157531D03*
X0377831Y0152731D03*
X0372731Y0164431D03*
X0366131Y0167431D03*
X0366131Y0172531D03*
X0378731Y0175231D03*
X0373031Y0179431D03*
X0371531Y0190531D03*
X0365531Y0195031D03*
X0367631Y0197431D03*
X0390131Y0180031D03*
X0340331Y0208231D03*
X0327731Y0214231D03*
X0340331Y0217831D03*
X0355931Y0215731D03*
X0327731Y0199231D03*
X0325031Y0197431D03*
X0322631Y0195331D03*
X0323231Y0200731D03*
X0326531Y0204031D03*
X0327731Y0192631D03*
X0325331Y0190531D03*
X0325631Y0187531D03*
X0328331Y0180031D03*
X0307631Y0182431D03*
X0286931Y0172531D03*
X0281831Y0167431D03*
X0278531Y0170131D03*
X0270131Y0170131D03*
X0255131Y0174331D03*
X0261731Y0180331D03*
X0268931Y0187531D03*
X0271331Y0192631D03*
X0273431Y0197431D03*
X0274631Y0202531D03*
X0278831Y0205531D03*
X0266831Y0212431D03*
X0271931Y0216331D03*
X0267431Y0222631D03*
X0242531Y0219931D03*
X0241931Y0227431D03*
X0229031Y0217531D03*
X0217931Y0214531D03*
X0219131Y0207631D03*
X0215231Y0203731D03*
X0208331Y0201631D03*
X0212231Y0197731D03*
X0198431Y0192331D03*
X0208331Y0182431D03*
X0181331Y0172531D03*
X0168731Y0167431D03*
X0168731Y0158431D03*
X0166331Y0156331D03*
X0166331Y0152731D03*
X0145631Y0161731D03*
X0143231Y0163831D03*
X0118331Y0162331D03*
X0115931Y0164431D03*
X0118331Y0167431D03*
X0115931Y0169531D03*
X0118331Y0172531D03*
X0115931Y0174631D03*
X0118331Y0177631D03*
X0118331Y0180631D03*
X0118331Y0187531D03*
X0118331Y0194431D03*
X0118331Y0197731D03*
X0118331Y0202531D03*
X0118331Y0207631D03*
X0118331Y0212731D03*
X0118331Y0216931D03*
X0115931Y0222331D03*
X0109331Y0209731D03*
X0082931Y0212731D03*
X0082931Y0217531D03*
X0080531Y0207631D03*
X0080531Y0202531D03*
X0080531Y0197731D03*
X0080531Y0192631D03*
X0080531Y0187531D03*
X0080531Y0182431D03*
X0076331Y0177631D03*
X0071531Y0172831D03*
X0066431Y0167731D03*
X0061331Y0162631D03*
X0056531Y0157831D03*
X0054431Y0141331D03*
X0045131Y0141331D03*
X0045131Y0138331D03*
X0070931Y0113431D03*
X0117431Y0138331D03*
X0127331Y0136231D03*
X0127331Y0127231D03*
X0139031Y0113431D03*
X0148331Y0110731D03*
X0159131Y0121531D03*
X0180731Y0121531D03*
X0179531Y0112231D03*
X0204731Y0112531D03*
X0214331Y0108331D03*
X0222431Y0110431D03*
X0218831Y0129631D03*
X0204431Y0132031D03*
X0191231Y0132031D03*
X0236231Y0144031D03*
X0252131Y0149431D03*
X0258731Y0146131D03*
X0270431Y0140431D03*
X0281831Y0141331D03*
X0283331Y0155431D03*
X0280931Y0157531D03*
X0283631Y0160831D03*
X0275531Y0161131D03*
X0263831Y0161131D03*
X0241931Y0161131D03*
X0241931Y0169531D03*
X0238631Y0188131D03*
X0195131Y0214831D03*
X0180731Y0210031D03*
X0169031Y0209731D03*
X0166331Y0214831D03*
X0168731Y0222331D03*
X0168731Y0226531D03*
X0151031Y0202831D03*
X0151931Y0197731D03*
X0156731Y0199531D03*
X0154631Y0190231D03*
X0154631Y0184831D03*
X0154631Y0181831D03*
X0147731Y0184831D03*
X0144131Y0182431D03*
X0142031Y0187531D03*
X0148631Y0190231D03*
X0143831Y0192631D03*
X0190031Y0165331D03*
X0187631Y0163231D03*
X0254231Y0139831D03*
X0256631Y0131131D03*
X0254231Y0129031D03*
X0258731Y0128731D03*
X0254231Y0121831D03*
X0256331Y0119431D03*
X0257531Y0113131D03*
X0260531Y0107131D03*
X0287531Y0113131D03*
X0290831Y0121831D03*
X0283631Y0127231D03*
X0308531Y0105331D03*
X0278831Y0072631D03*
X0233831Y0086731D03*
X0229031Y0081931D03*
X0223931Y0076831D03*
X0218831Y0074131D03*
X0214031Y0074131D03*
X0208931Y0074131D03*
X0203831Y0074131D03*
X0199031Y0074131D03*
X0169031Y0082831D03*
X0118331Y0152731D03*
X0118331Y0157531D03*
X0115931Y0159631D03*
X0292331Y0203131D03*
X0307631Y0212131D03*
X0316631Y0227431D03*
X0327731Y0164431D03*
X0304931Y0162331D03*
X0396731Y0138031D03*
D20*
X0303000Y0058031D02*
X0303000Y0022500D01*
X0305500Y0022500D01*
X0295500Y0022500D02*
X0293000Y0022500D01*
X0293000Y0058031D01*
X0283000Y0058031D02*
X0283000Y0022500D01*
X0285500Y0022500D01*
X0275500Y0022500D02*
X0273000Y0022500D01*
X0273000Y0058031D01*
X0263000Y0058031D02*
X0263000Y0022500D01*
X0265500Y0022500D01*
X0255500Y0022500D02*
X0253000Y0022500D01*
X0253000Y0058031D01*
X0243000Y0058031D02*
X0243000Y0022500D01*
X0245500Y0022500D01*
X0233231Y0024631D02*
X0233231Y0057800D01*
X0233000Y0058031D01*
X0223000Y0058031D02*
X0223000Y0022500D01*
X0225500Y0022500D01*
X0215500Y0022500D02*
X0213000Y0022500D01*
X0213000Y0058031D01*
X0203000Y0058031D02*
X0203000Y0022500D01*
X0205500Y0022500D01*
X0195500Y0022500D02*
X0193000Y0022500D01*
X0193000Y0058031D01*
X0183000Y0058031D02*
X0183000Y0022500D01*
X0185500Y0022500D01*
X0173231Y0024631D02*
X0173000Y0024631D01*
X0173000Y0058031D01*
M02*
