G75*
%MOIN*%
%OFA0B0*%
%FSLAX25Y25*%
%IPPOS*%
%LPD*%
%AMOC8*
5,1,8,0,0,1.08239X$1,22.5*
%
%ADD10C,0.01000*%
%ADD11OC8,0.05200*%
%ADD12R,0.07087X0.06299*%
%ADD13R,0.06004X0.02559*%
%ADD14OC8,0.06000*%
%ADD15C,0.06000*%
%ADD16R,0.08661X0.02362*%
%ADD17R,0.07874X0.06299*%
%ADD18R,0.06000X0.25500*%
%ADD19R,0.02362X0.08661*%
%ADD20R,0.06299X0.07874*%
%ADD21R,0.04600X0.06300*%
%ADD22C,0.03200*%
%ADD23C,0.01600*%
%ADD24C,0.00600*%
%ADD25OC8,0.03562*%
%ADD26C,0.02400*%
%ADD27C,0.02400*%
%ADD28C,0.01200*%
D10*
X0003000Y0050276D02*
X0003000Y0255000D01*
X0422291Y0255000D01*
X0422291Y0050276D01*
X0325835Y0050276D01*
X0325835Y0006969D01*
X0166386Y0006969D01*
X0166386Y0050276D01*
X0003000Y0050276D01*
D11*
X0335323Y0061220D03*
X0335323Y0081220D03*
D12*
X0310244Y0237402D03*
X0310244Y0248425D03*
X0394890Y0248031D03*
X0394890Y0237008D03*
X0186228Y0237283D03*
X0186228Y0248307D03*
X0099457Y0248701D03*
X0099457Y0237677D03*
D13*
X0122480Y0138189D03*
X0122480Y0133189D03*
X0122480Y0128189D03*
X0122480Y0123189D03*
X0122480Y0118189D03*
X0122480Y0113189D03*
X0122480Y0108189D03*
X0143835Y0108189D03*
X0143835Y0113189D03*
X0143835Y0118189D03*
X0143835Y0123189D03*
X0143835Y0128189D03*
X0143835Y0133189D03*
X0143835Y0138189D03*
X0057614Y0138189D03*
X0057614Y0133189D03*
X0057614Y0128189D03*
X0057614Y0123189D03*
X0057614Y0118189D03*
X0057614Y0113189D03*
X0057614Y0108189D03*
X0036260Y0108189D03*
X0036260Y0113189D03*
X0036260Y0118189D03*
X0036260Y0123189D03*
X0036260Y0128189D03*
X0036260Y0133189D03*
X0036260Y0138189D03*
X0278780Y0138189D03*
X0278780Y0133189D03*
X0278780Y0128189D03*
X0278780Y0123189D03*
X0278780Y0118189D03*
X0278780Y0113189D03*
X0278780Y0108189D03*
X0300134Y0108189D03*
X0300134Y0113189D03*
X0300134Y0118189D03*
X0300134Y0123189D03*
X0300134Y0128189D03*
X0300134Y0133189D03*
X0300134Y0138189D03*
X0364370Y0138110D03*
X0364370Y0133110D03*
X0364370Y0128110D03*
X0364370Y0123110D03*
X0364370Y0118110D03*
X0364370Y0113110D03*
X0364370Y0108110D03*
X0385724Y0108110D03*
X0385724Y0113110D03*
X0385724Y0118110D03*
X0385724Y0123110D03*
X0385724Y0128110D03*
X0385724Y0133110D03*
X0385724Y0138110D03*
D14*
X0313000Y0068031D03*
X0303000Y0068031D03*
X0293000Y0068031D03*
X0283000Y0068031D03*
X0273000Y0068031D03*
X0263000Y0068031D03*
X0253000Y0068031D03*
X0243000Y0068031D03*
X0233000Y0068031D03*
X0223000Y0068031D03*
X0213000Y0068031D03*
X0203000Y0068031D03*
X0193000Y0068031D03*
X0183000Y0068031D03*
X0173000Y0068031D03*
X0173000Y0058031D03*
X0183000Y0058031D03*
X0193000Y0058031D03*
X0203000Y0058031D03*
X0213000Y0058031D03*
X0223000Y0058031D03*
X0233000Y0058031D03*
X0243000Y0058031D03*
X0253000Y0058031D03*
X0263000Y0058031D03*
X0273000Y0058031D03*
X0283000Y0058031D03*
X0293000Y0058031D03*
X0303000Y0058031D03*
X0313000Y0058031D03*
D15*
X0141669Y0072795D02*
X0135669Y0072795D01*
X0135669Y0082795D02*
X0141669Y0082795D01*
X0022252Y0228535D02*
X0022252Y0234535D01*
X0012252Y0234535D02*
X0012252Y0228535D01*
X0403039Y0227921D02*
X0403039Y0221921D01*
X0413039Y0221921D02*
X0413039Y0227921D01*
D16*
X0384496Y0227539D03*
X0384496Y0222539D03*
X0384496Y0217539D03*
X0384496Y0212539D03*
X0384496Y0207539D03*
X0384496Y0202539D03*
X0384496Y0197539D03*
X0384496Y0192539D03*
X0384496Y0187539D03*
X0384496Y0182539D03*
X0384496Y0177539D03*
X0384496Y0172539D03*
X0384496Y0167539D03*
X0384496Y0162539D03*
X0384496Y0157539D03*
X0384496Y0152539D03*
X0334102Y0152539D03*
X0334102Y0157539D03*
X0334102Y0162539D03*
X0334102Y0167539D03*
X0334102Y0172539D03*
X0334102Y0177539D03*
X0334102Y0182539D03*
X0334102Y0187539D03*
X0334102Y0192539D03*
X0334102Y0197539D03*
X0334102Y0202539D03*
X0334102Y0207539D03*
X0334102Y0212539D03*
X0334102Y0217539D03*
X0334102Y0222539D03*
X0334102Y0227539D03*
X0298669Y0227539D03*
X0298669Y0222539D03*
X0298669Y0217539D03*
X0298669Y0212539D03*
X0298669Y0207539D03*
X0298669Y0202539D03*
X0298669Y0197539D03*
X0298669Y0192539D03*
X0298669Y0187539D03*
X0298669Y0182539D03*
X0298669Y0177539D03*
X0298669Y0172539D03*
X0298669Y0167539D03*
X0298669Y0162539D03*
X0298669Y0157539D03*
X0298669Y0152539D03*
X0248276Y0152539D03*
X0248276Y0157539D03*
X0248276Y0162539D03*
X0248276Y0167539D03*
X0248276Y0172539D03*
X0248276Y0177539D03*
X0248276Y0182539D03*
X0248276Y0187539D03*
X0248276Y0192539D03*
X0248276Y0197539D03*
X0248276Y0202539D03*
X0248276Y0207539D03*
X0248276Y0212539D03*
X0248276Y0217539D03*
X0248276Y0222539D03*
X0248276Y0227539D03*
X0175047Y0227539D03*
X0175047Y0222539D03*
X0175047Y0217539D03*
X0175047Y0212539D03*
X0175047Y0207539D03*
X0175047Y0202539D03*
X0175047Y0197539D03*
X0175047Y0192539D03*
X0175047Y0187539D03*
X0175047Y0182539D03*
X0175047Y0177539D03*
X0175047Y0172539D03*
X0175047Y0167539D03*
X0175047Y0162539D03*
X0175047Y0157539D03*
X0175047Y0152539D03*
X0124654Y0152539D03*
X0124654Y0157539D03*
X0124654Y0162539D03*
X0124654Y0167539D03*
X0124654Y0172539D03*
X0124654Y0177539D03*
X0124654Y0182539D03*
X0124654Y0187539D03*
X0124654Y0192539D03*
X0124654Y0197539D03*
X0124654Y0202539D03*
X0124654Y0207539D03*
X0124654Y0212539D03*
X0124654Y0217539D03*
X0124654Y0222539D03*
X0124654Y0227539D03*
X0089220Y0227539D03*
X0089220Y0222539D03*
X0089220Y0217539D03*
X0089220Y0212539D03*
X0089220Y0207539D03*
X0089220Y0202539D03*
X0089220Y0197539D03*
X0089220Y0192539D03*
X0089220Y0187539D03*
X0089220Y0182539D03*
X0089220Y0177539D03*
X0089220Y0172539D03*
X0089220Y0167539D03*
X0089220Y0162539D03*
X0089220Y0157539D03*
X0089220Y0152539D03*
X0038827Y0152539D03*
X0038827Y0157539D03*
X0038827Y0162539D03*
X0038827Y0167539D03*
X0038827Y0172539D03*
X0038827Y0177539D03*
X0038827Y0182539D03*
X0038827Y0187539D03*
X0038827Y0192539D03*
X0038827Y0197539D03*
X0038827Y0202539D03*
X0038827Y0207539D03*
X0038827Y0212539D03*
X0038827Y0217539D03*
X0038827Y0222539D03*
X0038827Y0227539D03*
D17*
X0121701Y0083307D03*
X0121701Y0072283D03*
D18*
X0175500Y0022500D03*
X0185500Y0022500D03*
X0195500Y0022500D03*
X0205500Y0022500D03*
X0215500Y0022500D03*
X0225500Y0022500D03*
X0235500Y0022500D03*
X0245500Y0022500D03*
X0255500Y0022500D03*
X0265500Y0022500D03*
X0275500Y0022500D03*
X0285500Y0022500D03*
X0295500Y0022500D03*
X0305500Y0022500D03*
X0315500Y0022500D03*
D19*
X0238768Y0102047D03*
X0233768Y0102047D03*
X0228768Y0102047D03*
X0223768Y0102047D03*
X0218768Y0102047D03*
X0213768Y0102047D03*
X0208768Y0102047D03*
X0203768Y0102047D03*
X0198768Y0102047D03*
X0193768Y0102047D03*
X0188768Y0102047D03*
X0183768Y0102047D03*
X0183768Y0138268D03*
X0188768Y0138268D03*
X0193768Y0138268D03*
X0198768Y0138268D03*
X0203768Y0138268D03*
X0208768Y0138268D03*
X0213768Y0138268D03*
X0218768Y0138268D03*
X0223768Y0138268D03*
X0228768Y0138268D03*
X0233768Y0138268D03*
X0238768Y0138268D03*
D20*
X0173866Y0115236D03*
X0162843Y0115236D03*
X0162843Y0101457D03*
X0173866Y0101457D03*
D21*
X0175291Y0138858D03*
X0169291Y0138858D03*
D22*
X0154575Y0138858D01*
X0154575Y0064055D01*
X0121701Y0072283D02*
X0121110Y0072283D01*
X0121110Y0058150D01*
X0040331Y0058150D01*
X0012252Y0058150D01*
X0012252Y0231535D01*
X0012843Y0249094D01*
X0099457Y0248701D01*
X0186228Y0248307D01*
X0310244Y0248425D01*
X0394890Y0248031D01*
X0412449Y0247126D01*
X0413039Y0224921D01*
X0403039Y0224921D02*
X0402606Y0235315D01*
X0394890Y0237008D01*
X0384439Y0237056D01*
X0310244Y0237402D01*
X0298630Y0237391D01*
X0186228Y0237283D01*
X0175038Y0237334D01*
X0099457Y0237677D01*
X0089223Y0237620D01*
X0028591Y0237283D01*
X0022252Y0231535D01*
X0022252Y0109331D01*
X0022252Y0064055D01*
X0313000Y0068031D02*
X0335323Y0081220D01*
X0353394Y0081772D01*
X0364631Y0081772D01*
X0402606Y0081772D01*
X0402606Y0213661D01*
X0403039Y0224921D01*
X0313984Y0070000D02*
X0313000Y0068031D01*
X0313984Y0070000D02*
X0319929Y0064055D01*
X0319929Y0026654D01*
X0319654Y0026654D01*
X0315500Y0022500D01*
D23*
X0298631Y0227731D02*
X0298631Y0235831D01*
X0384431Y0235531D02*
X0384431Y0227731D01*
X0175031Y0227731D02*
X0175031Y0235831D01*
X0089231Y0236131D02*
X0089231Y0227731D01*
D24*
X0089220Y0227539D01*
X0084431Y0225331D02*
X0122531Y0225331D01*
X0124631Y0227431D01*
X0124654Y0227539D01*
X0124931Y0227431D01*
X0167831Y0227431D01*
X0168731Y0226531D01*
X0167831Y0224431D02*
X0169931Y0224431D01*
X0170831Y0225331D01*
X0230231Y0225331D01*
X0234731Y0229831D01*
X0253031Y0229831D01*
X0253631Y0229231D01*
X0253631Y0222331D01*
X0264731Y0222331D01*
X0266831Y0220231D01*
X0303431Y0220231D01*
X0304631Y0221431D01*
X0316331Y0221431D01*
X0317231Y0222331D01*
X0334031Y0222331D01*
X0334102Y0222539D01*
X0334031Y0227431D02*
X0334102Y0227539D01*
X0334031Y0227431D02*
X0316631Y0227431D01*
X0317831Y0224731D02*
X0382331Y0224731D01*
X0384431Y0222631D01*
X0384496Y0222539D01*
X0384431Y0217831D02*
X0384496Y0217539D01*
X0384431Y0217831D02*
X0340331Y0217831D01*
X0336131Y0215731D02*
X0334331Y0217531D01*
X0334102Y0217539D01*
X0334031Y0217531D01*
X0313031Y0217531D01*
X0307631Y0212131D01*
X0304031Y0214231D02*
X0304031Y0207631D01*
X0298931Y0207631D01*
X0298669Y0207539D01*
X0298931Y0203131D02*
X0292331Y0203131D01*
X0291431Y0205231D02*
X0285281Y0199081D01*
X0294131Y0190231D01*
X0302831Y0190231D01*
X0315431Y0177631D01*
X0334031Y0177631D01*
X0334102Y0177539D01*
X0331631Y0180031D02*
X0334031Y0182431D01*
X0334102Y0182539D01*
X0331631Y0180031D02*
X0328331Y0180031D01*
X0339431Y0186331D02*
X0339431Y0189031D01*
X0336131Y0192331D01*
X0334331Y0192331D01*
X0334102Y0192539D01*
X0334031Y0192631D01*
X0327731Y0192631D01*
X0327731Y0195331D02*
X0327731Y0199231D01*
X0326231Y0200731D02*
X0328031Y0202531D01*
X0334031Y0202531D01*
X0334102Y0202539D01*
X0338231Y0205231D02*
X0328331Y0205231D01*
X0327431Y0206131D01*
X0304331Y0206131D01*
X0303431Y0205231D01*
X0291431Y0205231D01*
X0298669Y0202539D02*
X0298931Y0203131D01*
X0298931Y0202831D02*
X0298669Y0202539D01*
X0298931Y0202831D02*
X0325331Y0202831D01*
X0326531Y0204031D01*
X0326231Y0200731D02*
X0323231Y0200731D01*
X0325031Y0197431D02*
X0298931Y0197431D01*
X0298669Y0197539D01*
X0298669Y0192539D02*
X0298931Y0192331D01*
X0323531Y0192331D01*
X0325331Y0190531D01*
X0325631Y0187531D02*
X0334031Y0187531D01*
X0334102Y0187539D01*
X0334331Y0187531D01*
X0336131Y0187531D01*
X0343631Y0180031D01*
X0343631Y0154531D01*
X0341531Y0152431D01*
X0341531Y0142831D01*
X0343931Y0148231D02*
X0353831Y0138331D01*
X0364331Y0138331D01*
X0364370Y0138110D01*
X0369131Y0135631D02*
X0369131Y0147931D01*
X0361631Y0155431D01*
X0361631Y0210331D01*
X0329831Y0210331D01*
X0327131Y0207631D01*
X0304031Y0207631D01*
X0298631Y0212431D02*
X0298669Y0212539D01*
X0298631Y0212431D02*
X0282731Y0212431D01*
X0276731Y0206431D01*
X0276731Y0193231D01*
X0272231Y0188731D01*
X0272231Y0159631D01*
X0283931Y0147931D01*
X0283931Y0132631D01*
X0279731Y0128431D01*
X0278831Y0128431D01*
X0278780Y0128189D01*
X0274631Y0129631D02*
X0277931Y0132931D01*
X0278531Y0132931D01*
X0278780Y0133189D01*
X0285131Y0132631D02*
X0285131Y0148531D01*
X0273431Y0160231D01*
X0273431Y0162031D01*
X0288731Y0177331D01*
X0298631Y0177331D01*
X0298669Y0177539D01*
X0298931Y0182431D02*
X0298669Y0182539D01*
X0298931Y0182431D02*
X0307631Y0182431D01*
X0298669Y0187539D02*
X0298631Y0187531D01*
X0296831Y0187531D01*
X0279431Y0170131D01*
X0278531Y0170131D01*
X0281831Y0167431D02*
X0298631Y0167431D01*
X0298669Y0167539D01*
X0302231Y0162631D02*
X0304031Y0164431D01*
X0327731Y0164431D01*
X0334031Y0162331D02*
X0334102Y0162539D01*
X0334031Y0162331D02*
X0304931Y0162331D01*
X0302231Y0162631D02*
X0298931Y0162631D01*
X0298669Y0162539D01*
X0302831Y0160231D02*
X0284231Y0160231D01*
X0283631Y0160831D01*
X0280931Y0157531D02*
X0298631Y0157531D01*
X0298669Y0157539D01*
X0302831Y0160231D02*
X0305231Y0157831D01*
X0334031Y0157831D01*
X0334102Y0157539D01*
X0338831Y0155431D02*
X0283331Y0155431D01*
X0282731Y0152731D02*
X0275531Y0159931D01*
X0275531Y0161131D01*
X0263831Y0161131D02*
X0263831Y0179431D01*
X0271031Y0186631D01*
X0271031Y0189331D01*
X0275531Y0193831D01*
X0275531Y0201631D01*
X0274631Y0202531D01*
X0248531Y0202531D01*
X0248276Y0202539D01*
X0248276Y0197539D02*
X0248231Y0197431D01*
X0246131Y0197431D01*
X0238631Y0189931D01*
X0238631Y0188131D01*
X0243431Y0180331D02*
X0217031Y0206731D01*
X0217031Y0208531D01*
X0230831Y0222331D01*
X0248231Y0222331D01*
X0248276Y0222539D01*
X0248531Y0222331D01*
X0253631Y0222331D01*
X0261131Y0219931D02*
X0262331Y0221131D01*
X0264131Y0221131D01*
X0271031Y0214231D01*
X0293531Y0214231D01*
X0294131Y0214831D01*
X0303431Y0214831D01*
X0304031Y0214231D01*
X0298669Y0217539D02*
X0298631Y0217531D01*
X0273131Y0217531D01*
X0271931Y0216331D01*
X0266831Y0212431D02*
X0248531Y0212431D01*
X0248276Y0212539D01*
X0248231Y0207631D02*
X0248276Y0207539D01*
X0248231Y0207631D02*
X0219131Y0207631D01*
X0215231Y0203731D02*
X0241331Y0177631D01*
X0248231Y0177631D01*
X0248276Y0177539D01*
X0244031Y0175231D02*
X0253031Y0175231D01*
X0253631Y0175831D01*
X0253631Y0179131D01*
X0252431Y0180331D01*
X0243431Y0180331D01*
X0248276Y0182539D02*
X0248531Y0182431D01*
X0259631Y0182431D01*
X0261731Y0180331D01*
X0255131Y0174331D02*
X0251831Y0171031D01*
X0250331Y0172531D01*
X0248531Y0172531D01*
X0248276Y0172539D01*
X0246431Y0169531D02*
X0248231Y0167731D01*
X0248276Y0167539D01*
X0248531Y0167431D01*
X0250331Y0167431D01*
X0255431Y0162331D01*
X0255431Y0141631D01*
X0256631Y0140431D01*
X0256631Y0131131D01*
X0254231Y0129031D02*
X0254231Y0139831D01*
X0254231Y0158431D01*
X0250331Y0162331D01*
X0248531Y0162331D01*
X0248276Y0162539D01*
X0248231Y0162331D01*
X0247031Y0161131D01*
X0241931Y0161131D01*
X0246431Y0157531D02*
X0236231Y0147331D01*
X0236231Y0144031D01*
X0238931Y0143131D02*
X0248231Y0152431D01*
X0248276Y0152539D01*
X0252131Y0149431D02*
X0252131Y0128131D01*
X0256331Y0123931D01*
X0256331Y0119431D01*
X0255431Y0117331D02*
X0270731Y0117331D01*
X0274781Y0121381D01*
X0277931Y0118231D01*
X0278531Y0118231D01*
X0278780Y0118189D01*
X0278831Y0117931D01*
X0279731Y0117931D01*
X0289331Y0108331D01*
X0300131Y0108331D01*
X0300134Y0108189D01*
X0304331Y0105931D02*
X0311231Y0112831D01*
X0364331Y0112831D01*
X0364370Y0113110D01*
X0364331Y0117931D02*
X0364370Y0118110D01*
X0364631Y0117931D01*
X0369431Y0117931D01*
X0375131Y0117931D01*
X0384731Y0108331D01*
X0385631Y0108331D01*
X0385724Y0108110D01*
X0382631Y0105631D02*
X0388931Y0105631D01*
X0389831Y0106531D01*
X0389831Y0109831D01*
X0386831Y0112831D01*
X0385931Y0112831D01*
X0385724Y0113110D01*
X0385724Y0118110D02*
X0385931Y0118231D01*
X0386531Y0118231D01*
X0398831Y0130531D01*
X0398831Y0165031D01*
X0386531Y0177331D01*
X0384731Y0177331D01*
X0384496Y0177539D01*
X0382331Y0182431D02*
X0379331Y0179431D01*
X0378731Y0179431D01*
X0378731Y0175231D01*
X0378731Y0179431D02*
X0373031Y0179431D01*
X0382331Y0182431D02*
X0384431Y0182431D01*
X0384496Y0182539D01*
X0390131Y0180031D02*
X0390131Y0188731D01*
X0386531Y0192331D01*
X0384731Y0192331D01*
X0384496Y0192539D01*
X0384431Y0192331D01*
X0382631Y0190531D01*
X0371531Y0190531D01*
X0378131Y0187531D02*
X0384431Y0187531D01*
X0384496Y0187539D01*
X0378131Y0187531D02*
X0364031Y0173431D01*
X0364031Y0156631D01*
X0372431Y0148231D01*
X0372431Y0128731D01*
X0367031Y0123331D01*
X0364631Y0123331D01*
X0364370Y0123110D01*
X0367631Y0120631D02*
X0360731Y0120631D01*
X0331481Y0149881D01*
X0319931Y0138331D01*
X0300431Y0138331D01*
X0300134Y0138189D01*
X0285131Y0132631D02*
X0299531Y0118231D01*
X0300131Y0118231D01*
X0300134Y0118189D01*
X0296831Y0115831D02*
X0309731Y0115831D01*
X0311831Y0117931D01*
X0364331Y0117931D01*
X0367631Y0120631D02*
X0385031Y0138031D01*
X0385631Y0138031D01*
X0385724Y0138110D01*
X0385931Y0138031D01*
X0396731Y0138031D01*
X0384496Y0152539D02*
X0384431Y0152731D01*
X0377831Y0152731D01*
X0384431Y0157531D02*
X0366131Y0157531D01*
X0362831Y0156031D02*
X0362831Y0195631D01*
X0379631Y0212431D01*
X0384431Y0212431D01*
X0384496Y0212539D01*
X0379931Y0214831D02*
X0389231Y0214831D01*
X0389831Y0214231D01*
X0389831Y0210931D01*
X0386531Y0207631D01*
X0384731Y0207631D01*
X0384496Y0207539D01*
X0384496Y0202539D02*
X0384431Y0202531D01*
X0382631Y0202531D01*
X0377531Y0197431D01*
X0367631Y0197431D01*
X0365531Y0195031D02*
X0382031Y0195031D01*
X0384431Y0197431D01*
X0384496Y0197539D01*
X0384731Y0197431D01*
X0386531Y0197431D01*
X0400031Y0183931D01*
X0400031Y0114931D01*
X0389531Y0104431D01*
X0382031Y0104431D01*
X0376031Y0110431D01*
X0310631Y0110431D01*
X0304931Y0104731D01*
X0289331Y0104731D01*
X0283631Y0110431D01*
X0275231Y0110431D01*
X0274631Y0109831D01*
X0274631Y0106531D01*
X0282731Y0098431D01*
X0282731Y0068431D01*
X0283000Y0068031D01*
X0280931Y0071731D02*
X0280931Y0086731D01*
X0260531Y0107131D01*
X0263231Y0113131D02*
X0222131Y0072031D01*
X0191231Y0072031D01*
X0187031Y0067831D01*
X0187031Y0066331D01*
X0182831Y0062131D01*
X0182831Y0058231D01*
X0183000Y0058031D01*
X0182831Y0062131D02*
X0182831Y0062431D01*
X0177131Y0068131D01*
X0177131Y0069631D01*
X0174731Y0072031D01*
X0168431Y0072031D01*
X0156431Y0060031D01*
X0152831Y0060031D01*
X0145631Y0067231D01*
X0145631Y0090631D01*
X0123131Y0113131D01*
X0122531Y0113131D01*
X0122480Y0113189D01*
X0122231Y0113131D01*
X0113231Y0113131D01*
X0106031Y0105931D01*
X0049031Y0105931D01*
X0041831Y0113131D01*
X0036431Y0113131D01*
X0036260Y0113189D01*
X0033431Y0110431D02*
X0039731Y0110431D01*
X0040331Y0109831D01*
X0040331Y0058150D01*
X0121701Y0083307D02*
X0121931Y0083131D01*
X0138131Y0083131D01*
X0138431Y0082831D01*
X0138669Y0082795D01*
X0162449Y0071929D02*
X0162131Y0070831D01*
X0162131Y0067531D01*
X0155831Y0061231D01*
X0153431Y0061231D01*
X0151631Y0063031D01*
X0151631Y0111031D01*
X0147131Y0115531D01*
X0140831Y0115531D01*
X0139931Y0116431D01*
X0139931Y0135031D01*
X0142931Y0138031D01*
X0143831Y0138031D01*
X0143835Y0138189D01*
X0127331Y0138631D02*
X0127331Y0136231D01*
X0127331Y0138631D02*
X0152531Y0163831D01*
X0152531Y0185731D01*
X0154331Y0187531D01*
X0175031Y0187531D01*
X0175047Y0187539D01*
X0172931Y0190231D02*
X0175031Y0192331D01*
X0175047Y0192539D01*
X0175331Y0192331D01*
X0198431Y0192331D01*
X0199031Y0194731D02*
X0156131Y0194731D01*
X0149831Y0188431D01*
X0149831Y0162931D01*
X0127331Y0140431D01*
X0100931Y0140431D01*
X0068831Y0108331D01*
X0057731Y0108331D01*
X0057614Y0108189D01*
X0057431Y0108331D01*
X0048431Y0108331D01*
X0038831Y0117931D01*
X0036431Y0117931D01*
X0036260Y0118189D01*
X0036131Y0118231D01*
X0035531Y0118231D01*
X0032231Y0121531D01*
X0032231Y0129931D01*
X0035231Y0132931D01*
X0036131Y0132931D01*
X0036260Y0133189D01*
X0036431Y0128431D02*
X0036260Y0128189D01*
X0036431Y0128431D02*
X0038231Y0128431D01*
X0049931Y0140131D01*
X0049931Y0148231D01*
X0082631Y0180931D01*
X0082631Y0207931D01*
X0087131Y0212431D01*
X0088931Y0212431D01*
X0089220Y0212539D01*
X0089231Y0207631D02*
X0089220Y0207539D01*
X0089231Y0207631D02*
X0107231Y0207631D01*
X0109331Y0209731D01*
X0105431Y0202831D02*
X0117431Y0214831D01*
X0166331Y0214831D01*
X0167231Y0212731D02*
X0169331Y0214831D01*
X0195131Y0214831D01*
X0195431Y0217531D02*
X0175331Y0217531D01*
X0175047Y0217539D01*
X0175031Y0217831D01*
X0173231Y0219631D01*
X0118031Y0219631D01*
X0116231Y0217831D01*
X0089231Y0217831D01*
X0089220Y0217539D01*
X0084731Y0220231D02*
X0116831Y0220231D01*
X0118931Y0222331D01*
X0124631Y0222331D01*
X0124654Y0222539D01*
X0124931Y0222631D01*
X0166031Y0222631D01*
X0167831Y0224431D01*
X0168731Y0222331D02*
X0175031Y0222331D01*
X0175047Y0222539D01*
X0175047Y0227539D02*
X0175031Y0227731D01*
X0175031Y0235831D02*
X0175038Y0237334D01*
X0195431Y0217531D02*
X0208181Y0204781D01*
X0217931Y0214531D01*
X0229031Y0217531D02*
X0248231Y0217531D01*
X0248276Y0217539D01*
X0242531Y0219931D02*
X0261131Y0219931D01*
X0267431Y0222631D02*
X0298631Y0222631D01*
X0298669Y0222539D01*
X0298931Y0222631D01*
X0315731Y0222631D01*
X0317831Y0224731D01*
X0327731Y0214231D02*
X0332531Y0214231D01*
X0334031Y0212731D01*
X0334102Y0212539D01*
X0336131Y0215731D02*
X0355931Y0215731D01*
X0361631Y0210331D02*
X0375431Y0210331D01*
X0379931Y0214831D01*
X0384496Y0227539D02*
X0384431Y0227731D01*
X0384431Y0235531D02*
X0384439Y0237056D01*
X0340331Y0208231D02*
X0339731Y0207631D01*
X0334331Y0207631D01*
X0334102Y0207539D01*
X0338231Y0205231D02*
X0354731Y0188731D01*
X0354731Y0140731D01*
X0352331Y0142831D02*
X0352331Y0173431D01*
X0339431Y0186331D01*
X0331931Y0195331D02*
X0334031Y0197431D01*
X0334102Y0197539D01*
X0331931Y0195331D02*
X0327731Y0195331D01*
X0322631Y0195331D01*
X0285281Y0199081D02*
X0278831Y0205531D01*
X0273431Y0197431D02*
X0248531Y0197431D01*
X0248276Y0197539D01*
X0248531Y0192631D02*
X0248276Y0192539D01*
X0248531Y0192631D02*
X0271331Y0192631D01*
X0268931Y0187531D02*
X0248531Y0187531D01*
X0248276Y0187539D01*
X0244031Y0175231D02*
X0233831Y0165031D01*
X0233831Y0138331D01*
X0233768Y0138268D01*
X0238631Y0138031D02*
X0238631Y0136231D01*
X0234131Y0131731D01*
X0213431Y0131731D01*
X0211031Y0134131D01*
X0211031Y0142831D01*
X0210131Y0143731D01*
X0207431Y0143731D01*
X0206531Y0142831D01*
X0206531Y0119431D01*
X0225131Y0119431D01*
X0238631Y0105931D01*
X0238631Y0102331D01*
X0238768Y0102047D01*
X0233831Y0102031D02*
X0233768Y0102047D01*
X0233831Y0102031D02*
X0233831Y0086731D01*
X0229031Y0081931D02*
X0229031Y0102031D01*
X0228768Y0102047D01*
X0228731Y0102331D01*
X0228731Y0104131D01*
X0222431Y0110431D01*
X0228131Y0114631D02*
X0181931Y0114631D01*
X0179531Y0112231D01*
X0181331Y0107431D02*
X0174131Y0114631D01*
X0174131Y0115231D01*
X0173866Y0115236D01*
X0178031Y0119431D02*
X0177131Y0120331D01*
X0168431Y0120331D01*
X0163931Y0115831D01*
X0162843Y0115236D01*
X0159131Y0121531D02*
X0173831Y0121531D01*
X0186131Y0133831D01*
X0186131Y0142531D01*
X0188531Y0144931D01*
X0210731Y0144931D01*
X0213731Y0141931D01*
X0213731Y0138331D01*
X0213768Y0138268D01*
X0218531Y0138331D02*
X0218768Y0138268D01*
X0218531Y0138331D02*
X0218531Y0175231D01*
X0199031Y0194731D01*
X0208331Y0201631D02*
X0203831Y0206131D01*
X0180731Y0206131D01*
X0180581Y0206281D01*
X0180731Y0206431D01*
X0180731Y0210031D01*
X0180581Y0206281D02*
X0177131Y0202831D01*
X0175331Y0202831D01*
X0175047Y0202539D01*
X0175331Y0197731D02*
X0175047Y0197539D01*
X0175031Y0197431D01*
X0155831Y0197431D01*
X0153431Y0199831D01*
X0117431Y0199831D01*
X0115331Y0197731D01*
X0089231Y0197731D01*
X0089220Y0197539D01*
X0089220Y0192539D02*
X0089231Y0192331D01*
X0118031Y0192331D01*
X0120131Y0190231D01*
X0148631Y0190231D01*
X0143831Y0192631D02*
X0124931Y0192631D01*
X0124654Y0192539D01*
X0124631Y0192631D01*
X0122831Y0194431D01*
X0118331Y0194431D01*
X0124654Y0197539D02*
X0124931Y0197731D01*
X0151931Y0197731D01*
X0156731Y0199531D02*
X0156731Y0200431D01*
X0168731Y0212431D01*
X0175031Y0212431D01*
X0175047Y0212539D01*
X0172931Y0209731D02*
X0175031Y0207631D01*
X0175047Y0207539D01*
X0172931Y0209731D02*
X0169031Y0209731D01*
X0167231Y0212731D02*
X0124931Y0212731D01*
X0124654Y0212539D01*
X0124631Y0212731D01*
X0118331Y0212731D01*
X0118331Y0216931D02*
X0124031Y0216931D01*
X0124631Y0217531D01*
X0124654Y0217539D01*
X0115931Y0222331D02*
X0089231Y0222331D01*
X0089220Y0222539D01*
X0084731Y0220231D02*
X0082631Y0222331D01*
X0038831Y0222331D01*
X0038827Y0222539D01*
X0038831Y0227431D02*
X0038827Y0227539D01*
X0038831Y0227431D02*
X0082331Y0227431D01*
X0084431Y0225331D01*
X0082931Y0217531D02*
X0038831Y0217531D01*
X0038827Y0217539D01*
X0038831Y0212731D02*
X0038827Y0212539D01*
X0038831Y0212731D02*
X0082931Y0212731D01*
X0080531Y0207631D02*
X0038831Y0207631D01*
X0038827Y0207539D01*
X0038827Y0202539D02*
X0038831Y0202531D01*
X0080531Y0202531D01*
X0080531Y0197731D02*
X0038831Y0197731D01*
X0038827Y0197539D01*
X0038831Y0192631D02*
X0038827Y0192539D01*
X0038831Y0192631D02*
X0080531Y0192631D01*
X0080531Y0187531D02*
X0038831Y0187531D01*
X0038827Y0187539D01*
X0038827Y0182539D02*
X0038831Y0182431D01*
X0080531Y0182431D01*
X0083831Y0180931D02*
X0083831Y0184231D01*
X0087131Y0187531D01*
X0088931Y0187531D01*
X0089220Y0187539D01*
X0089231Y0182731D02*
X0089220Y0182539D01*
X0089231Y0182731D02*
X0118031Y0182731D01*
X0120131Y0184831D01*
X0147731Y0184831D01*
X0144131Y0182431D02*
X0124931Y0182431D01*
X0124654Y0182539D01*
X0124631Y0182431D01*
X0122831Y0180631D01*
X0118331Y0180631D01*
X0118331Y0177631D02*
X0124631Y0177631D01*
X0124654Y0177539D01*
X0122831Y0174631D02*
X0124631Y0172831D01*
X0124654Y0172539D01*
X0122831Y0174631D02*
X0115931Y0174631D01*
X0118331Y0172531D02*
X0089231Y0172531D01*
X0089220Y0172539D01*
X0085031Y0175231D02*
X0093731Y0175231D01*
X0094631Y0176131D01*
X0094631Y0179131D01*
X0093431Y0180331D01*
X0084431Y0180331D01*
X0083831Y0180931D01*
X0085331Y0177331D02*
X0088931Y0177331D01*
X0089220Y0177539D01*
X0085331Y0177331D02*
X0051131Y0143131D01*
X0051131Y0123931D01*
X0056831Y0118231D01*
X0057431Y0118231D01*
X0057614Y0118189D01*
X0061031Y0115831D02*
X0054131Y0115831D01*
X0046931Y0123031D01*
X0036431Y0123031D01*
X0036260Y0123189D01*
X0031031Y0112831D02*
X0033431Y0110431D01*
X0031031Y0112831D02*
X0031031Y0138631D01*
X0038381Y0145981D01*
X0043031Y0141331D01*
X0045131Y0141331D01*
X0045131Y0138331D02*
X0036431Y0138331D01*
X0036260Y0138189D01*
X0038381Y0145981D02*
X0038531Y0146131D01*
X0038531Y0152431D01*
X0038827Y0152539D01*
X0038827Y0157539D02*
X0038831Y0157831D01*
X0056531Y0157831D01*
X0061331Y0162631D02*
X0038831Y0162631D01*
X0038827Y0162539D01*
X0038827Y0167539D02*
X0038831Y0167731D01*
X0066431Y0167731D01*
X0071531Y0172831D02*
X0038831Y0172831D01*
X0038827Y0172539D01*
X0038827Y0177539D02*
X0038831Y0177631D01*
X0076331Y0177631D01*
X0085031Y0175231D02*
X0052331Y0142531D01*
X0052331Y0137731D01*
X0054131Y0135931D01*
X0060431Y0135931D01*
X0061631Y0134731D01*
X0061631Y0116431D01*
X0061031Y0115831D01*
X0057731Y0113431D02*
X0057614Y0113189D01*
X0057731Y0113431D02*
X0070931Y0113431D01*
X0057614Y0138189D02*
X0057431Y0138331D01*
X0054431Y0141331D01*
X0057731Y0138331D02*
X0057614Y0138189D01*
X0057731Y0138331D02*
X0097031Y0138331D01*
X0109331Y0150631D01*
X0122831Y0150631D01*
X0124631Y0152431D01*
X0124654Y0152539D01*
X0118331Y0152731D02*
X0089231Y0152731D01*
X0089220Y0152539D01*
X0089231Y0157531D02*
X0089220Y0157539D01*
X0089231Y0157531D02*
X0118331Y0157531D01*
X0115931Y0159631D02*
X0122831Y0159631D01*
X0124631Y0157831D01*
X0124654Y0157539D01*
X0124931Y0157831D01*
X0141731Y0157831D01*
X0145631Y0161731D01*
X0143231Y0163831D02*
X0142031Y0162631D01*
X0124931Y0162631D01*
X0124654Y0162539D01*
X0124631Y0162631D01*
X0122831Y0164431D01*
X0115931Y0164431D01*
X0118331Y0162331D02*
X0089231Y0162331D01*
X0089220Y0162539D01*
X0089231Y0167431D02*
X0089220Y0167539D01*
X0089231Y0167431D02*
X0118331Y0167431D01*
X0115931Y0169531D02*
X0122831Y0169531D01*
X0124631Y0167731D01*
X0124654Y0167539D01*
X0150731Y0160231D02*
X0150731Y0155731D01*
X0123431Y0128431D01*
X0122531Y0128431D01*
X0122480Y0128189D01*
X0118331Y0129631D02*
X0118331Y0121531D01*
X0121631Y0118231D01*
X0122231Y0118231D01*
X0122480Y0118189D01*
X0122531Y0117931D01*
X0123431Y0117931D01*
X0133031Y0108331D01*
X0143831Y0108331D01*
X0143835Y0108189D01*
X0144131Y0108331D01*
X0146531Y0110731D01*
X0148331Y0110731D01*
X0143835Y0113189D02*
X0143831Y0113431D01*
X0139031Y0113431D01*
X0143835Y0118189D02*
X0144131Y0118231D01*
X0146831Y0120931D01*
X0147131Y0120931D01*
X0151931Y0125731D01*
X0151931Y0156331D01*
X0172931Y0177331D01*
X0175031Y0177331D01*
X0175047Y0177539D01*
X0175331Y0182431D02*
X0175047Y0182539D01*
X0175031Y0182731D01*
X0172931Y0184831D01*
X0154631Y0184831D01*
X0154631Y0181831D02*
X0154631Y0164131D01*
X0150731Y0160231D01*
X0166331Y0156331D02*
X0173831Y0156331D01*
X0175031Y0157531D01*
X0175047Y0157539D01*
X0172631Y0162331D02*
X0168731Y0158431D01*
X0172631Y0162331D02*
X0175031Y0162331D01*
X0175047Y0162539D01*
X0175331Y0162631D01*
X0178031Y0165331D01*
X0190031Y0165331D01*
X0187631Y0163231D02*
X0177131Y0152731D01*
X0175331Y0152731D01*
X0175047Y0152539D01*
X0175031Y0152731D01*
X0166331Y0152731D01*
X0175291Y0138858D02*
X0175331Y0138631D01*
X0183431Y0138631D01*
X0183731Y0138331D01*
X0183768Y0138268D01*
X0191231Y0132031D02*
X0180731Y0121531D01*
X0178031Y0119431D02*
X0206531Y0119431D01*
X0204731Y0112531D02*
X0204731Y0103231D01*
X0203831Y0102331D01*
X0203768Y0102047D01*
X0203831Y0102031D01*
X0203831Y0074131D01*
X0199031Y0074131D02*
X0199031Y0102031D01*
X0198768Y0102047D01*
X0193768Y0102047D02*
X0193631Y0102031D01*
X0193631Y0099931D01*
X0190331Y0096631D01*
X0182231Y0096631D01*
X0177431Y0101431D01*
X0174131Y0101431D01*
X0173866Y0101457D01*
X0169631Y0105631D02*
X0169631Y0082831D01*
X0169031Y0082831D01*
X0169631Y0082831D02*
X0169631Y0081331D01*
X0182831Y0068131D01*
X0183000Y0068031D01*
X0208931Y0074131D02*
X0208931Y0102031D01*
X0208768Y0102047D01*
X0213768Y0102047D02*
X0214031Y0102031D01*
X0214031Y0074131D01*
X0218831Y0074131D02*
X0218831Y0102031D01*
X0218768Y0102047D01*
X0218531Y0102331D01*
X0218531Y0104131D01*
X0214331Y0108331D01*
X0223768Y0102047D02*
X0223931Y0102031D01*
X0223931Y0076831D01*
X0237131Y0096631D02*
X0235931Y0097831D01*
X0235931Y0106831D01*
X0228131Y0114631D01*
X0222731Y0120631D02*
X0252131Y0120631D01*
X0255431Y0117331D01*
X0254231Y0121831D02*
X0246431Y0129631D01*
X0218831Y0129631D01*
X0222131Y0132931D02*
X0220931Y0134131D01*
X0220931Y0192031D01*
X0208181Y0204781D01*
X0213131Y0206431D02*
X0234131Y0227431D01*
X0241931Y0227431D01*
X0248231Y0227431D01*
X0248276Y0227539D01*
X0213131Y0206431D02*
X0213131Y0202831D01*
X0223631Y0192331D01*
X0223631Y0138331D01*
X0223768Y0138268D01*
X0228731Y0138031D02*
X0228731Y0136231D01*
X0225431Y0132931D01*
X0222131Y0132931D01*
X0228731Y0138031D02*
X0228768Y0138268D01*
X0238631Y0138031D02*
X0238768Y0138268D01*
X0238931Y0138331D01*
X0238931Y0143131D01*
X0256631Y0142231D02*
X0258731Y0140131D01*
X0258731Y0128731D01*
X0274631Y0129631D02*
X0274631Y0121531D01*
X0274781Y0121381D01*
X0278780Y0123189D02*
X0278831Y0123331D01*
X0279731Y0123331D01*
X0283631Y0127231D01*
X0290831Y0121831D02*
X0296831Y0115831D01*
X0299831Y0113131D02*
X0300134Y0113189D01*
X0300431Y0113431D01*
X0309131Y0113431D01*
X0311231Y0115531D01*
X0372731Y0115531D01*
X0382631Y0105631D01*
X0364631Y0108031D02*
X0364370Y0108110D01*
X0364631Y0108031D02*
X0364631Y0081772D01*
X0359831Y0105331D02*
X0308531Y0105331D01*
X0304331Y0105931D02*
X0289931Y0105931D01*
X0282731Y0113131D01*
X0278831Y0113131D01*
X0278780Y0113189D01*
X0278531Y0113131D01*
X0263231Y0113131D01*
X0257531Y0113131D02*
X0256931Y0113131D01*
X0240431Y0096631D01*
X0237131Y0096631D01*
X0222731Y0120631D02*
X0208931Y0134431D01*
X0208931Y0138031D01*
X0208768Y0138268D01*
X0203831Y0138031D02*
X0203768Y0138268D01*
X0203831Y0138031D02*
X0203831Y0132631D01*
X0204431Y0132031D01*
X0185231Y0107431D02*
X0181331Y0107431D01*
X0185231Y0107431D02*
X0188531Y0104131D01*
X0188531Y0102331D01*
X0188768Y0102047D01*
X0183768Y0102047D02*
X0183731Y0102331D01*
X0181631Y0102331D01*
X0177431Y0106531D01*
X0170531Y0106531D01*
X0169631Y0105631D01*
X0127331Y0127231D02*
X0123431Y0123331D01*
X0122531Y0123331D01*
X0122480Y0123189D01*
X0118331Y0129631D02*
X0121631Y0132931D01*
X0122231Y0132931D01*
X0122480Y0133189D01*
X0122480Y0138189D02*
X0122231Y0138331D01*
X0117431Y0138331D01*
X0168731Y0167431D02*
X0175031Y0167431D01*
X0175047Y0167539D01*
X0175331Y0172531D02*
X0175047Y0172539D01*
X0175331Y0172531D02*
X0181331Y0172531D01*
X0175331Y0182431D02*
X0208331Y0182431D01*
X0212231Y0197731D02*
X0175331Y0197731D01*
X0172931Y0190231D02*
X0154631Y0190231D01*
X0142031Y0187531D02*
X0124931Y0187531D01*
X0124654Y0187539D01*
X0124631Y0187531D01*
X0118331Y0187531D01*
X0124654Y0197539D02*
X0124631Y0197731D01*
X0118331Y0197731D01*
X0118331Y0202531D02*
X0124631Y0202531D01*
X0124654Y0202539D01*
X0124931Y0202831D01*
X0151031Y0202831D01*
X0124654Y0207539D02*
X0124631Y0207631D01*
X0118331Y0207631D01*
X0105431Y0202831D02*
X0089231Y0202831D01*
X0089220Y0202539D01*
X0089231Y0236131D02*
X0089223Y0237620D01*
X0013031Y0230131D02*
X0012252Y0231535D01*
X0241931Y0169531D02*
X0246431Y0169531D01*
X0251831Y0171031D02*
X0256631Y0166231D01*
X0256631Y0142231D01*
X0258731Y0146131D02*
X0266531Y0138331D01*
X0278531Y0138331D01*
X0278780Y0138189D01*
X0278831Y0138331D01*
X0281831Y0141331D01*
X0270431Y0140431D02*
X0270431Y0169831D01*
X0270131Y0170131D01*
X0286931Y0172531D02*
X0298631Y0172531D01*
X0298669Y0172539D01*
X0298631Y0152731D02*
X0282731Y0152731D01*
X0298631Y0152731D02*
X0298669Y0152539D01*
X0298931Y0152731D01*
X0327731Y0152731D01*
X0331481Y0149881D02*
X0334031Y0152431D01*
X0334102Y0152539D01*
X0338831Y0155431D02*
X0339431Y0156031D01*
X0339431Y0164131D01*
X0336131Y0167431D01*
X0334331Y0167431D01*
X0334102Y0167539D01*
X0336131Y0172531D02*
X0341531Y0167131D01*
X0341531Y0155431D01*
X0362831Y0156031D02*
X0371231Y0147631D01*
X0371231Y0129331D01*
X0370031Y0128131D01*
X0364631Y0128131D01*
X0364370Y0128110D01*
X0369131Y0130231D02*
X0366431Y0132931D01*
X0364631Y0132931D01*
X0364370Y0133110D01*
X0384431Y0157531D02*
X0384496Y0157539D01*
X0384496Y0162539D02*
X0384431Y0162631D01*
X0382631Y0164431D01*
X0372731Y0164431D01*
X0366131Y0167431D02*
X0384431Y0167431D01*
X0384496Y0167539D01*
X0384431Y0172531D02*
X0384496Y0172539D01*
X0384431Y0172531D02*
X0366131Y0172531D01*
X0336131Y0172531D02*
X0334331Y0172531D01*
X0334102Y0172539D01*
X0248276Y0157539D02*
X0248231Y0157531D01*
X0246431Y0157531D01*
X0287531Y0113131D02*
X0299831Y0113131D01*
X0278831Y0108031D02*
X0278831Y0105931D01*
X0313331Y0071431D01*
X0313984Y0070000D01*
X0282731Y0062731D02*
X0282731Y0058231D01*
X0283000Y0058031D01*
X0282731Y0062731D02*
X0278831Y0066631D01*
X0278831Y0069631D01*
X0280931Y0071731D01*
X0278831Y0072631D02*
X0262031Y0072631D01*
X0259031Y0069631D01*
X0259031Y0066331D01*
X0262931Y0062431D01*
X0262931Y0058231D01*
X0263000Y0058031D01*
X0286931Y0023731D02*
X0285731Y0022531D01*
X0285500Y0022500D01*
X0295500Y0022500D02*
X0295631Y0022531D01*
X0297131Y0024031D01*
X0278831Y0108031D02*
X0278780Y0108189D01*
X0298669Y0227539D02*
X0298631Y0227731D01*
X0298631Y0235831D02*
X0298630Y0237391D01*
D25*
X0162449Y0071929D03*
X0154575Y0064055D03*
X0111268Y0064055D03*
X0022252Y0064055D03*
D26*
X0023394Y0108189D02*
X0022252Y0109331D01*
X0023394Y0108189D02*
X0036260Y0108189D01*
X0111268Y0108189D02*
X0111268Y0064055D01*
X0121701Y0072283D02*
X0122213Y0072795D01*
X0138669Y0072795D01*
X0162449Y0071929D02*
X0162843Y0072323D01*
X0162843Y0101457D01*
X0162843Y0115236D01*
X0122480Y0108189D02*
X0111268Y0108189D01*
D27*
X0139031Y0113431D03*
X0148331Y0110731D03*
X0159131Y0121531D03*
X0180731Y0121531D03*
X0179531Y0112231D03*
X0204731Y0112531D03*
X0214331Y0108331D03*
X0222431Y0110431D03*
X0218831Y0129631D03*
X0204431Y0132031D03*
X0191231Y0132031D03*
X0166331Y0152731D03*
X0166331Y0156331D03*
X0168731Y0158431D03*
X0168731Y0167431D03*
X0181331Y0172531D03*
X0190031Y0165331D03*
X0187631Y0163231D03*
X0154631Y0181831D03*
X0154631Y0184831D03*
X0154631Y0190231D03*
X0148631Y0190231D03*
X0143831Y0192631D03*
X0142031Y0187531D03*
X0147731Y0184831D03*
X0144131Y0182431D03*
X0118331Y0180631D03*
X0118331Y0177631D03*
X0115931Y0174631D03*
X0118331Y0172531D03*
X0115931Y0169531D03*
X0118331Y0167431D03*
X0115931Y0164431D03*
X0118331Y0162331D03*
X0115931Y0159631D03*
X0118331Y0157531D03*
X0118331Y0152731D03*
X0117431Y0138331D03*
X0127331Y0136231D03*
X0127331Y0127231D03*
X0070931Y0113431D03*
X0045131Y0138331D03*
X0045131Y0141331D03*
X0054431Y0141331D03*
X0056531Y0157831D03*
X0061331Y0162631D03*
X0066431Y0167731D03*
X0071531Y0172831D03*
X0076331Y0177631D03*
X0080531Y0182431D03*
X0080531Y0187531D03*
X0080531Y0192631D03*
X0080531Y0197731D03*
X0080531Y0202531D03*
X0080531Y0207631D03*
X0082931Y0212731D03*
X0082931Y0217531D03*
X0109331Y0209731D03*
X0118331Y0207631D03*
X0118331Y0202531D03*
X0118331Y0197731D03*
X0118331Y0194431D03*
X0118331Y0187531D03*
X0151931Y0197731D03*
X0156731Y0199531D03*
X0151031Y0202831D03*
X0169031Y0209731D03*
X0166331Y0214831D03*
X0168731Y0222331D03*
X0168731Y0226531D03*
X0195131Y0214831D03*
X0180731Y0210031D03*
X0208331Y0201631D03*
X0212231Y0197731D03*
X0215231Y0203731D03*
X0219131Y0207631D03*
X0217931Y0214531D03*
X0229031Y0217531D03*
X0242531Y0219931D03*
X0241931Y0227431D03*
X0267431Y0222631D03*
X0271931Y0216331D03*
X0266831Y0212431D03*
X0278831Y0205531D03*
X0274631Y0202531D03*
X0273431Y0197431D03*
X0271331Y0192631D03*
X0268931Y0187531D03*
X0261731Y0180331D03*
X0255131Y0174331D03*
X0241931Y0169531D03*
X0241931Y0161131D03*
X0252131Y0149431D03*
X0258731Y0146131D03*
X0270431Y0140431D03*
X0281831Y0141331D03*
X0283331Y0155431D03*
X0280931Y0157531D03*
X0283631Y0160831D03*
X0275531Y0161131D03*
X0263831Y0161131D03*
X0270131Y0170131D03*
X0278531Y0170131D03*
X0281831Y0167431D03*
X0286931Y0172531D03*
X0304931Y0162331D03*
X0327731Y0164431D03*
X0341531Y0155431D03*
X0343931Y0148231D03*
X0341531Y0142831D03*
X0352331Y0142831D03*
X0354731Y0140731D03*
X0369131Y0135631D03*
X0369131Y0130231D03*
X0369431Y0117931D03*
X0359831Y0105331D03*
X0308531Y0105331D03*
X0287531Y0113131D03*
X0290831Y0121831D03*
X0283631Y0127231D03*
X0258731Y0128731D03*
X0256631Y0131131D03*
X0254231Y0129031D03*
X0254231Y0121831D03*
X0256331Y0119431D03*
X0257531Y0113131D03*
X0260531Y0107131D03*
X0233831Y0086731D03*
X0229031Y0081931D03*
X0223931Y0076831D03*
X0218831Y0074131D03*
X0214031Y0074131D03*
X0208931Y0074131D03*
X0203831Y0074131D03*
X0199031Y0074131D03*
X0169031Y0082831D03*
X0254231Y0139831D03*
X0236231Y0144031D03*
X0208331Y0182431D03*
X0198431Y0192331D03*
X0238631Y0188131D03*
X0292331Y0203131D03*
X0307631Y0212131D03*
X0323231Y0200731D03*
X0326531Y0204031D03*
X0327731Y0199231D03*
X0325031Y0197431D03*
X0322631Y0195331D03*
X0325331Y0190531D03*
X0325631Y0187531D03*
X0327731Y0192631D03*
X0328331Y0180031D03*
X0307631Y0182431D03*
X0340331Y0208231D03*
X0327731Y0214231D03*
X0340331Y0217831D03*
X0355931Y0215731D03*
X0367631Y0197431D03*
X0365531Y0195031D03*
X0371531Y0190531D03*
X0373031Y0179431D03*
X0378731Y0175231D03*
X0366131Y0172531D03*
X0366131Y0167431D03*
X0372731Y0164431D03*
X0366131Y0157531D03*
X0377831Y0152731D03*
X0396731Y0138031D03*
X0327731Y0152731D03*
X0390131Y0180031D03*
X0316631Y0227431D03*
X0145631Y0161731D03*
X0143231Y0163831D03*
X0118331Y0212731D03*
X0118331Y0216931D03*
X0115931Y0222331D03*
X0278831Y0072631D03*
D28*
X0283000Y0068031D02*
X0287843Y0064567D01*
X0287843Y0023731D01*
X0286931Y0023731D01*
X0277803Y0022500D02*
X0277803Y0064409D01*
X0273000Y0068031D01*
X0267764Y0064252D02*
X0263000Y0068031D01*
X0267764Y0064252D02*
X0267764Y0022500D01*
X0265500Y0022500D01*
X0257724Y0022500D02*
X0257724Y0064094D01*
X0253000Y0068031D01*
X0247882Y0064055D02*
X0246976Y0064055D01*
X0243000Y0068031D01*
X0247882Y0064055D02*
X0247882Y0022500D01*
X0245500Y0022500D01*
X0238039Y0022500D02*
X0238039Y0064055D01*
X0236976Y0064055D01*
X0233000Y0068031D01*
X0227803Y0064055D02*
X0226976Y0064055D01*
X0223000Y0068031D01*
X0227803Y0064055D02*
X0227803Y0022500D01*
X0225500Y0022500D01*
X0217961Y0022500D02*
X0217961Y0064055D01*
X0216976Y0064055D01*
X0213000Y0068031D01*
X0207921Y0064055D02*
X0206976Y0064055D01*
X0203000Y0068031D01*
X0207921Y0064055D02*
X0207921Y0022500D01*
X0205500Y0022500D01*
X0197882Y0022500D02*
X0197882Y0063150D01*
X0193000Y0068031D01*
X0178197Y0062087D02*
X0173000Y0067283D01*
X0173000Y0068031D01*
X0178197Y0062087D02*
X0178197Y0025197D01*
X0175500Y0022500D01*
X0195500Y0022500D02*
X0197882Y0022500D01*
X0215500Y0022500D02*
X0217961Y0022500D01*
X0235500Y0022500D02*
X0238039Y0022500D01*
X0255500Y0022500D02*
X0257724Y0022500D01*
X0275500Y0022500D02*
X0277803Y0022500D01*
X0297131Y0024031D02*
X0298276Y0024031D01*
X0298276Y0064055D01*
X0296976Y0064055D01*
X0293000Y0068031D01*
X0303000Y0068031D02*
X0306976Y0064055D01*
X0308118Y0064055D01*
X0308118Y0022500D01*
X0305500Y0022500D01*
M02*
