%
M48
M72
T01C0.01200
T02C0.02362
T03C0.03200
T04C0.04000
%
T01
X82931Y217531
X82931Y212731
X80531Y207631
X80531Y202531
X80531Y197731
X80531Y192631
X80531Y187531
X80531Y182431
X76331Y177631
X71531Y172831
X66431Y167731
X61331Y162631
X56531Y157831
X54431Y141331
X45131Y141331
X45131Y138331
X70931Y113431
X117431Y138331
X127331Y136231
X127331Y127231
X139031Y113431
X148331Y110731
X159131Y121531
X180731Y121531
X179531Y112231
X204731Y112531
X214331Y108331
X222431Y110431
X218831Y129631
X204431Y132031
X191231Y132031
X166331Y152731
X166331Y156331
X168731Y158431
X168731Y167431
X181331Y172531
X190031Y165331
X187631Y163231
X154631Y181831
X154631Y184831
X154631Y190231
X148631Y190231
X143831Y192631
X142031Y187531
X147731Y184831
X144131Y182431
X118331Y180631
X118331Y177631
X115931Y174631
X118331Y172531
X115931Y169531
X118331Y167431
X115931Y164431
X118331Y162331
X115931Y159631
X118331Y157531
X118331Y152731
X143231Y163831
X145631Y161731
X118331Y187531
X118331Y194431
X118331Y197731
X118331Y202531
X118331Y207631
X118331Y212731
X118331Y216931
X115931Y222331
X109331Y209731
X151031Y202831
X151931Y197731
X156731Y199531
X169031Y209731
X166331Y214831
X168731Y222331
X168731Y226531
X195131Y214831
X180731Y210031
X208331Y201631
X212231Y197731
X215231Y203731
X219131Y207631
X217931Y214531
X229031Y217531
X242531Y219931
X241931Y227431
X267431Y222631
X271931Y216331
X266831Y212431
X278831Y205531
X274631Y202531
X273431Y197431
X271331Y192631
X268931Y187531
X261731Y180331
X255131Y174331
X241931Y169531
X241931Y161131
X252131Y149431
X258731Y146131
X270431Y140431
X281831Y141331
X283331Y155431
X280931Y157531
X283631Y160831
X275531Y161131
X263831Y161131
X270131Y170131
X278531Y170131
X281831Y167431
X286931Y172531
X304931Y162331
X327731Y164431
X341531Y155431
X343931Y148231
X341531Y142831
X352331Y142831
X354731Y140731
X369131Y135631
X369131Y130231
X369431Y117931
X359831Y105331
X308531Y105331
X287531Y113131
X290831Y121831
X283631Y127231
X258731Y128731
X256631Y131131
X254231Y129031
X254231Y121831
X256331Y119431
X257531Y113131
X260531Y107131
X233831Y86731
X229031Y81931
X223931Y76831
X218831Y74131
X214031Y74131
X208931Y74131
X203831Y74131
X199031Y74131
X169031Y82831
X254231Y139831
X236231Y144031
X208331Y182431
X198431Y192331
X238631Y188131
X292331Y203131
X307631Y212131
X323231Y200731
X326531Y204031
X327731Y199231
X325031Y197431
X322631Y195331
X325331Y190531
X325631Y187531
X327731Y192631
X328331Y180031
X307631Y182431
X340331Y208231
X327731Y214231
X340331Y217831
X355931Y215731
X367631Y197431
X365531Y195031
X371531Y190531
X373031Y179431
X378731Y175231
X366131Y172531
X366131Y167431
X372731Y164431
X366131Y157531
X377831Y152731
X396731Y138031
X327731Y152731
X390131Y180031
X316631Y227431
X278831Y72631
T02
X162449Y71929
X154575Y64055
X111268Y64055
X22252Y64055
T03
X335323Y81220
X335323Y61220
T04
X12252Y231535
X22252Y231535
X138669Y82795
X138669Y72795
X173000Y68031
X183000Y68031
X193000Y68031
X203000Y68031
X213000Y68031
X223000Y68031
X233000Y68031
X243000Y68031
X253000Y68031
X263000Y68031
X273000Y68031
X283000Y68031
X293000Y68031
X303000Y68031
X313000Y68031
X313000Y58031
X303000Y58031
X293000Y58031
X283000Y58031
X273000Y58031
X263000Y58031
X253000Y58031
X243000Y58031
X233000Y58031
X223000Y58031
X213000Y58031
X203000Y58031
X193000Y58031
X183000Y58031
X173000Y58031
X403039Y224921
X413039Y224921
M30
