G75*
%MOIN*%
%OFA0B0*%
%FSLAX25Y25*%
%IPPOS*%
%LPD*%
%AMOC8*
5,1,8,0,0,1.08239X$1,22.5*
%
%ADD10C,0.01000*%
%ADD11OC8,0.05600*%
%ADD12OC8,0.06400*%
%ADD13C,0.06400*%
%ADD14R,0.06400X0.25900*%
D10*
X0003000Y0050276D02*
X0003000Y0255000D01*
X0422291Y0255000D01*
X0422291Y0050276D01*
X0325835Y0050276D01*
X0325835Y0006969D01*
X0166386Y0006969D01*
X0166386Y0050276D01*
X0003000Y0050276D01*
D11*
X0335323Y0061220D03*
X0335323Y0081220D03*
D12*
X0313000Y0068031D03*
X0303000Y0068031D03*
X0293000Y0068031D03*
X0283000Y0068031D03*
X0273000Y0068031D03*
X0263000Y0068031D03*
X0253000Y0068031D03*
X0243000Y0068031D03*
X0233000Y0068031D03*
X0223000Y0068031D03*
X0213000Y0068031D03*
X0203000Y0068031D03*
X0193000Y0068031D03*
X0183000Y0068031D03*
X0173000Y0068031D03*
X0173000Y0058031D03*
X0183000Y0058031D03*
X0193000Y0058031D03*
X0203000Y0058031D03*
X0213000Y0058031D03*
X0223000Y0058031D03*
X0233000Y0058031D03*
X0243000Y0058031D03*
X0253000Y0058031D03*
X0263000Y0058031D03*
X0273000Y0058031D03*
X0283000Y0058031D03*
X0293000Y0058031D03*
X0303000Y0058031D03*
X0313000Y0058031D03*
D13*
X0141669Y0072795D02*
X0135669Y0072795D01*
X0135669Y0082795D02*
X0141669Y0082795D01*
X0022252Y0228535D02*
X0022252Y0234535D01*
X0012252Y0234535D02*
X0012252Y0228535D01*
X0403039Y0227921D02*
X0403039Y0221921D01*
X0413039Y0221921D02*
X0413039Y0227921D01*
D14*
X0315500Y0022500D03*
X0305500Y0022500D03*
X0295500Y0022500D03*
X0285500Y0022500D03*
X0275500Y0022500D03*
X0265500Y0022500D03*
X0255500Y0022500D03*
X0245500Y0022500D03*
X0235500Y0022500D03*
X0225500Y0022500D03*
X0215500Y0022500D03*
X0205500Y0022500D03*
X0195500Y0022500D03*
X0185500Y0022500D03*
X0175500Y0022500D03*
M02*
